<mxfile host="app.diagrams.net" modified="2023-09-22T22:08:02.148Z" agent="Mozilla/5.0 (Macintosh; Intel Mac OS X 10_15_7) AppleWebKit/537.36 (KHTML, like Gecko) Chrome/116.0.0.0 Safari/537.36" etag="tB5YTCQberhK0CcM9Cwh" version="21.7.5" type="device" pages="8">
  <diagram name="Story Flow" id="zCmL512rmoMjRUL5NlI9">
    <mxGraphModel dx="3089" dy="1276" grid="0" gridSize="10" guides="1" tooltips="1" connect="1" arrows="1" fold="1" page="0" pageScale="1" pageWidth="850" pageHeight="1100" math="0" shadow="0">
      <root>
        <mxCell id="luJTpm8PmO6ZBvkuiiAE-0" />
        <mxCell id="luJTpm8PmO6ZBvkuiiAE-1" parent="luJTpm8PmO6ZBvkuiiAE-0" />
        <mxCell id="4DELLCQRKcT6BxQbLhj0-0" value="" style="rounded=0;whiteSpace=wrap;html=1;hachureGap=4;fontFamily=Architects Daughter;fontSource=https%3A%2F%2Ffonts.googleapis.com%2Fcss%3Ffamily%3DArchitects%2BDaughter;fontSize=20;labelBackgroundColor=#0A0A0A;noLabel=1;fillColor=#FFFFFF;" vertex="1" parent="luJTpm8PmO6ZBvkuiiAE-1">
          <mxGeometry x="-565" y="88" width="1479" height="626" as="geometry" />
        </mxCell>
        <mxCell id="luJTpm8PmO6ZBvkuiiAE-3" value="" style="swimlane;startSize=0;rounded=1;" vertex="1" parent="luJTpm8PmO6ZBvkuiiAE-1">
          <mxGeometry x="-330" y="409" width="429" height="246" as="geometry" />
        </mxCell>
        <mxCell id="luJTpm8PmO6ZBvkuiiAE-4" value="" style="endArrow=none;html=1;rounded=1;strokeWidth=3;dashed=1;" edge="1" parent="luJTpm8PmO6ZBvkuiiAE-3">
          <mxGeometry width="50" height="50" relative="1" as="geometry">
            <mxPoint x="20.5" y="119" as="sourcePoint" />
            <mxPoint x="130.5" y="119" as="targetPoint" />
          </mxGeometry>
        </mxCell>
        <mxCell id="luJTpm8PmO6ZBvkuiiAE-5" value="UX Process" style="text;html=1;strokeColor=none;fillColor=none;align=center;verticalAlign=middle;whiteSpace=wrap;rounded=1;" vertex="1" parent="luJTpm8PmO6ZBvkuiiAE-3">
          <mxGeometry x="20.5" y="89" width="110" height="30" as="geometry" />
        </mxCell>
        <mxCell id="luJTpm8PmO6ZBvkuiiAE-6" value="Status Name" style="whiteSpace=wrap;html=1;rounded=1;arcSize=14;strokeWidth=2;" vertex="1" parent="luJTpm8PmO6ZBvkuiiAE-3">
          <mxGeometry x="160.5" y="74" width="120" height="60" as="geometry" />
        </mxCell>
        <mxCell id="luJTpm8PmO6ZBvkuiiAE-7" value="" style="endArrow=classic;html=1;rounded=1;strokeWidth=3;fillColor=#ffe6cc;strokeColor=#d79b00;endFill=1;" edge="1" parent="luJTpm8PmO6ZBvkuiiAE-3">
          <mxGeometry width="50" height="50" relative="1" as="geometry">
            <mxPoint x="20.5" y="208.63999999999987" as="sourcePoint" />
            <mxPoint x="130.5" y="208.63999999999987" as="targetPoint" />
          </mxGeometry>
        </mxCell>
        <mxCell id="luJTpm8PmO6ZBvkuiiAE-8" value="Override Process" style="text;html=1;strokeColor=none;fillColor=none;align=center;verticalAlign=middle;whiteSpace=wrap;rounded=1;" vertex="1" parent="luJTpm8PmO6ZBvkuiiAE-3">
          <mxGeometry x="20.5" y="178.63999999999987" width="110" height="30" as="geometry" />
        </mxCell>
        <mxCell id="luJTpm8PmO6ZBvkuiiAE-9" value="Decision" style="rhombus;whiteSpace=wrap;html=1;rounded=1;arcSize=14;strokeWidth=2;" vertex="1" parent="luJTpm8PmO6ZBvkuiiAE-3">
          <mxGeometry x="180.5" y="154" width="80" height="80" as="geometry" />
        </mxCell>
        <mxCell id="luJTpm8PmO6ZBvkuiiAE-10" value="&lt;h1&gt;Legend&lt;/h1&gt;" style="text;html=1;strokeColor=none;fillColor=none;spacing=5;spacingTop=-20;whiteSpace=wrap;overflow=hidden;rounded=1;fontStyle=4;align=center;" vertex="1" parent="luJTpm8PmO6ZBvkuiiAE-3">
          <mxGeometry x="150.5" y="8" width="140" height="40" as="geometry" />
        </mxCell>
        <mxCell id="luJTpm8PmO6ZBvkuiiAE-11" value="Likely Actor on flow" style="shape=umlActor;verticalLabelPosition=bottom;verticalAlign=top;html=1;outlineConnect=0;rounded=1;" vertex="1" parent="luJTpm8PmO6ZBvkuiiAE-3">
          <mxGeometry x="340.5" y="64" width="30" height="60" as="geometry" />
        </mxCell>
        <mxCell id="luJTpm8PmO6ZBvkuiiAE-12" value="Transition Info" style="text;html=1;align=center;verticalAlign=middle;whiteSpace=wrap;rounded=1;fillColor=none;strokeColor=#6c8ebf;" vertex="1" parent="luJTpm8PmO6ZBvkuiiAE-3">
          <mxGeometry x="290.5" y="178.63999999999987" width="130" height="30" as="geometry" />
        </mxCell>
        <mxCell id="luJTpm8PmO6ZBvkuiiAE-13" value="" style="edgeStyle=orthogonalEdgeStyle;rounded=1;orthogonalLoop=1;jettySize=auto;html=1;" edge="1" parent="luJTpm8PmO6ZBvkuiiAE-1" source="luJTpm8PmO6ZBvkuiiAE-14" target="luJTpm8PmO6ZBvkuiiAE-18">
          <mxGeometry relative="1" as="geometry" />
        </mxCell>
        <mxCell id="luJTpm8PmO6ZBvkuiiAE-14" value="Automatically&lt;br&gt;added to the Dashboard&lt;br&gt;Board" style="rounded=1;whiteSpace=wrap;html=1;absoluteArcSize=1;arcSize=14;strokeWidth=2;fillColor=#f8cecc;strokeColor=#b85450;" vertex="1" parent="luJTpm8PmO6ZBvkuiiAE-1">
          <mxGeometry x="-260" y="270" width="100" height="100" as="geometry" />
        </mxCell>
        <mxCell id="luJTpm8PmO6ZBvkuiiAE-17" style="edgeStyle=orthogonalEdgeStyle;rounded=1;orthogonalLoop=1;jettySize=auto;html=1;entryX=0;entryY=0.5;entryDx=0;entryDy=0;" edge="1" parent="luJTpm8PmO6ZBvkuiiAE-1" source="luJTpm8PmO6ZBvkuiiAE-18" target="luJTpm8PmO6ZBvkuiiAE-34">
          <mxGeometry relative="1" as="geometry" />
        </mxCell>
        <mxCell id="luJTpm8PmO6ZBvkuiiAE-18" value="Untriaged" style="whiteSpace=wrap;html=1;rounded=1;arcSize=14;strokeWidth=2;" vertex="1" parent="luJTpm8PmO6ZBvkuiiAE-1">
          <mxGeometry x="-110" y="290" width="120" height="60" as="geometry" />
        </mxCell>
        <mxCell id="luJTpm8PmO6ZBvkuiiAE-19" value="" style="edgeStyle=orthogonalEdgeStyle;rounded=1;orthogonalLoop=1;jettySize=auto;html=1;" edge="1" parent="luJTpm8PmO6ZBvkuiiAE-1" source="luJTpm8PmO6ZBvkuiiAE-20" target="luJTpm8PmO6ZBvkuiiAE-22">
          <mxGeometry relative="1" as="geometry" />
        </mxCell>
        <mxCell id="luJTpm8PmO6ZBvkuiiAE-20" value="Dev To Do" style="whiteSpace=wrap;html=1;rounded=1;arcSize=14;strokeWidth=2;shadow=0;" vertex="1" parent="luJTpm8PmO6ZBvkuiiAE-1">
          <mxGeometry x="303" y="290" width="120" height="60" as="geometry" />
        </mxCell>
        <mxCell id="luJTpm8PmO6ZBvkuiiAE-21" style="edgeStyle=orthogonalEdgeStyle;rounded=1;orthogonalLoop=1;jettySize=auto;html=1;entryX=0;entryY=0.5;entryDx=0;entryDy=0;exitX=1;exitY=0.5;exitDx=0;exitDy=0;" edge="1" parent="luJTpm8PmO6ZBvkuiiAE-1" source="luJTpm8PmO6ZBvkuiiAE-22" target="luJTpm8PmO6ZBvkuiiAE-44">
          <mxGeometry relative="1" as="geometry">
            <mxPoint x="1090" y="780" as="targetPoint" />
          </mxGeometry>
        </mxCell>
        <mxCell id="luJTpm8PmO6ZBvkuiiAE-22" value="Dev In Progress" style="whiteSpace=wrap;html=1;rounded=1;arcSize=14;strokeWidth=2;shadow=0;" vertex="1" parent="luJTpm8PmO6ZBvkuiiAE-1">
          <mxGeometry x="520" y="290" width="120" height="60" as="geometry" />
        </mxCell>
        <mxCell id="luJTpm8PmO6ZBvkuiiAE-23" style="edgeStyle=orthogonalEdgeStyle;rounded=1;orthogonalLoop=1;jettySize=auto;html=1;entryX=0;entryY=0.5;entryDx=0;entryDy=0;" edge="1" parent="luJTpm8PmO6ZBvkuiiAE-1" source="luJTpm8PmO6ZBvkuiiAE-24" target="luJTpm8PmO6ZBvkuiiAE-14">
          <mxGeometry relative="1" as="geometry" />
        </mxCell>
        <mxCell id="luJTpm8PmO6ZBvkuiiAE-24" value="(Internal)&lt;br&gt;Story" style="rounded=1;whiteSpace=wrap;html=1;absoluteArcSize=1;arcSize=14;strokeWidth=2;" vertex="1" parent="luJTpm8PmO6ZBvkuiiAE-1">
          <mxGeometry x="-506" y="270" width="100" height="100" as="geometry" />
        </mxCell>
        <mxCell id="luJTpm8PmO6ZBvkuiiAE-27" value="" style="edgeStyle=orthogonalEdgeStyle;rounded=1;orthogonalLoop=1;jettySize=auto;html=1;" edge="1" parent="luJTpm8PmO6ZBvkuiiAE-1" target="luJTpm8PmO6ZBvkuiiAE-30">
          <mxGeometry relative="1" as="geometry">
            <mxPoint x="320" y="780" as="sourcePoint" />
          </mxGeometry>
        </mxCell>
        <mxCell id="luJTpm8PmO6ZBvkuiiAE-32" style="edgeStyle=orthogonalEdgeStyle;rounded=0;orthogonalLoop=1;jettySize=auto;html=1;fillColor=#ffe6cc;strokeColor=#d79b00;" edge="1" parent="luJTpm8PmO6ZBvkuiiAE-1" source="luJTpm8PmO6ZBvkuiiAE-34" target="luJTpm8PmO6ZBvkuiiAE-20">
          <mxGeometry relative="1" as="geometry" />
        </mxCell>
        <mxCell id="luJTpm8PmO6ZBvkuiiAE-33" value="Yes" style="edgeLabel;html=1;align=center;verticalAlign=middle;resizable=0;points=[];" vertex="1" connectable="0" parent="luJTpm8PmO6ZBvkuiiAE-32">
          <mxGeometry x="-0.9079" y="2" relative="1" as="geometry">
            <mxPoint x="7" y="1" as="offset" />
          </mxGeometry>
        </mxCell>
        <mxCell id="luJTpm8PmO6ZBvkuiiAE-34" value="Manual&lt;br&gt;Intervention?" style="rhombus;whiteSpace=wrap;html=1;rounded=1;" vertex="1" parent="luJTpm8PmO6ZBvkuiiAE-1">
          <mxGeometry x="90" y="270" width="100" height="100" as="geometry" />
        </mxCell>
        <mxCell id="luJTpm8PmO6ZBvkuiiAE-35" value="Dev" style="shape=umlActor;verticalLabelPosition=bottom;verticalAlign=top;html=1;outlineConnect=0;rounded=1;" vertex="1" parent="luJTpm8PmO6ZBvkuiiAE-1">
          <mxGeometry x="-363" y="259" width="30" height="60" as="geometry" />
        </mxCell>
        <mxCell id="luJTpm8PmO6ZBvkuiiAE-37" value="Dev Picks Up Work" style="text;html=1;align=center;verticalAlign=middle;whiteSpace=wrap;rounded=1;fillColor=none;strokeColor=#6c8ebf;" vertex="1" parent="luJTpm8PmO6ZBvkuiiAE-1">
          <mxGeometry x="399" y="250" width="125" height="30" as="geometry" />
        </mxCell>
        <mxCell id="luJTpm8PmO6ZBvkuiiAE-38" value="Dev Completes Work" style="text;html=1;align=center;verticalAlign=middle;whiteSpace=wrap;rounded=1;fillColor=none;strokeColor=#6c8ebf;" vertex="1" parent="luJTpm8PmO6ZBvkuiiAE-1">
          <mxGeometry x="635" y="250" width="130" height="30" as="geometry" />
        </mxCell>
        <mxCell id="luJTpm8PmO6ZBvkuiiAE-42" value="Dev" style="shape=umlActor;verticalLabelPosition=bottom;verticalAlign=top;html=1;outlineConnect=0;shadow=0;rounded=1;" vertex="1" parent="luJTpm8PmO6ZBvkuiiAE-1">
          <mxGeometry x="548" y="147" width="30" height="60" as="geometry" />
        </mxCell>
        <mxCell id="luJTpm8PmO6ZBvkuiiAE-44" value="Done&lt;br&gt;(Issue is closed)" style="whiteSpace=wrap;html=1;rounded=1;arcSize=14;strokeWidth=2;shadow=0;" vertex="1" parent="luJTpm8PmO6ZBvkuiiAE-1">
          <mxGeometry x="733" y="290" width="120" height="60" as="geometry" />
        </mxCell>
        <mxCell id="luJTpm8PmO6ZBvkuiiAE-45" value="Feature Owner &lt;br&gt;Pre-Triages Story" style="text;html=1;align=center;verticalAlign=middle;whiteSpace=wrap;rounded=1;fillColor=none;strokeColor=#6c8ebf;" vertex="1" parent="luJTpm8PmO6ZBvkuiiAE-1">
          <mxGeometry x="166" y="250" width="120" height="40" as="geometry" />
        </mxCell>
        <mxCell id="luJTpm8PmO6ZBvkuiiAE-46" value="Dev&lt;br&gt;Feature Owner" style="shape=umlActor;verticalLabelPosition=bottom;verticalAlign=top;html=1;outlineConnect=0;rounded=1;" vertex="1" parent="luJTpm8PmO6ZBvkuiiAE-1">
          <mxGeometry x="209" y="147" width="30" height="60" as="geometry" />
        </mxCell>
      </root>
    </mxGraphModel>
  </diagram>
  <diagram name="Tracker Flow" id="2kncG2gwzou3jMd_mC4s">
    <mxGraphModel dx="3089" dy="1276" grid="0" gridSize="10" guides="1" tooltips="1" connect="1" arrows="1" fold="1" page="0" pageScale="1" pageWidth="850" pageHeight="1100" math="0" shadow="0">
      <root>
        <mxCell id="Gq28cxbr4dffxXbNlcwu-0" />
        <mxCell id="Gq28cxbr4dffxXbNlcwu-1" parent="Gq28cxbr4dffxXbNlcwu-0" />
        <mxCell id="5z5HWafxtY6hO-7ljf6l-0" value="" style="rounded=0;whiteSpace=wrap;html=1;hachureGap=4;fontFamily=Architects Daughter;fontSource=https%3A%2F%2Ffonts.googleapis.com%2Fcss%3Ffamily%3DArchitects%2BDaughter;fontSize=20;labelBackgroundColor=#0A0A0A;noLabel=1;fillColor=#FFFFFF;" vertex="1" parent="Gq28cxbr4dffxXbNlcwu-1">
          <mxGeometry x="-554" y="80" width="1495" height="663" as="geometry" />
        </mxCell>
        <mxCell id="Gq28cxbr4dffxXbNlcwu-3" value="" style="swimlane;startSize=0;rounded=1;" vertex="1" parent="Gq28cxbr4dffxXbNlcwu-1">
          <mxGeometry x="-368" y="436" width="429" height="246" as="geometry" />
        </mxCell>
        <mxCell id="Gq28cxbr4dffxXbNlcwu-4" value="" style="endArrow=none;html=1;rounded=1;strokeWidth=3;dashed=1;" edge="1" parent="Gq28cxbr4dffxXbNlcwu-3">
          <mxGeometry width="50" height="50" relative="1" as="geometry">
            <mxPoint x="20.5" y="119" as="sourcePoint" />
            <mxPoint x="130.5" y="119" as="targetPoint" />
          </mxGeometry>
        </mxCell>
        <mxCell id="Gq28cxbr4dffxXbNlcwu-5" value="UX Process" style="text;html=1;strokeColor=none;fillColor=none;align=center;verticalAlign=middle;whiteSpace=wrap;rounded=1;" vertex="1" parent="Gq28cxbr4dffxXbNlcwu-3">
          <mxGeometry x="20.5" y="89" width="110" height="30" as="geometry" />
        </mxCell>
        <mxCell id="Gq28cxbr4dffxXbNlcwu-6" value="Status Name" style="whiteSpace=wrap;html=1;rounded=1;arcSize=14;strokeWidth=2;" vertex="1" parent="Gq28cxbr4dffxXbNlcwu-3">
          <mxGeometry x="160.5" y="74" width="120" height="60" as="geometry" />
        </mxCell>
        <mxCell id="Gq28cxbr4dffxXbNlcwu-7" value="" style="endArrow=classic;html=1;rounded=1;strokeWidth=3;fillColor=#ffe6cc;strokeColor=#d79b00;endFill=1;" edge="1" parent="Gq28cxbr4dffxXbNlcwu-3">
          <mxGeometry width="50" height="50" relative="1" as="geometry">
            <mxPoint x="20.5" y="208.63999999999987" as="sourcePoint" />
            <mxPoint x="130.5" y="208.63999999999987" as="targetPoint" />
          </mxGeometry>
        </mxCell>
        <mxCell id="Gq28cxbr4dffxXbNlcwu-8" value="Override Process" style="text;html=1;strokeColor=none;fillColor=none;align=center;verticalAlign=middle;whiteSpace=wrap;rounded=1;" vertex="1" parent="Gq28cxbr4dffxXbNlcwu-3">
          <mxGeometry x="20.5" y="178.63999999999987" width="110" height="30" as="geometry" />
        </mxCell>
        <mxCell id="Gq28cxbr4dffxXbNlcwu-9" value="Decision" style="rhombus;whiteSpace=wrap;html=1;rounded=1;arcSize=14;strokeWidth=2;" vertex="1" parent="Gq28cxbr4dffxXbNlcwu-3">
          <mxGeometry x="180.5" y="154" width="80" height="80" as="geometry" />
        </mxCell>
        <mxCell id="Gq28cxbr4dffxXbNlcwu-10" value="&lt;h1&gt;Legend&lt;/h1&gt;" style="text;html=1;strokeColor=none;fillColor=none;spacing=5;spacingTop=-20;whiteSpace=wrap;overflow=hidden;rounded=1;fontStyle=4;align=center;" vertex="1" parent="Gq28cxbr4dffxXbNlcwu-3">
          <mxGeometry x="150.5" y="8" width="140" height="40" as="geometry" />
        </mxCell>
        <mxCell id="Gq28cxbr4dffxXbNlcwu-11" value="Likely Actor on flow" style="shape=umlActor;verticalLabelPosition=bottom;verticalAlign=top;html=1;outlineConnect=0;rounded=1;" vertex="1" parent="Gq28cxbr4dffxXbNlcwu-3">
          <mxGeometry x="340.5" y="64" width="30" height="60" as="geometry" />
        </mxCell>
        <mxCell id="Gq28cxbr4dffxXbNlcwu-12" value="Transition Info" style="text;html=1;align=center;verticalAlign=middle;whiteSpace=wrap;rounded=1;fillColor=none;strokeColor=#6c8ebf;" vertex="1" parent="Gq28cxbr4dffxXbNlcwu-3">
          <mxGeometry x="290.5" y="178.63999999999987" width="130" height="30" as="geometry" />
        </mxCell>
        <mxCell id="Gq28cxbr4dffxXbNlcwu-13" value="" style="edgeStyle=orthogonalEdgeStyle;rounded=1;orthogonalLoop=1;jettySize=auto;html=1;" edge="1" parent="Gq28cxbr4dffxXbNlcwu-1" source="Gq28cxbr4dffxXbNlcwu-14" target="Gq28cxbr4dffxXbNlcwu-18">
          <mxGeometry relative="1" as="geometry" />
        </mxCell>
        <mxCell id="Gq28cxbr4dffxXbNlcwu-14" value="Automatically&lt;br&gt;added to the Dashboard&lt;br&gt;Board" style="rounded=1;whiteSpace=wrap;html=1;absoluteArcSize=1;arcSize=14;strokeWidth=2;fillColor=#f8cecc;strokeColor=#b85450;" vertex="1" parent="Gq28cxbr4dffxXbNlcwu-1">
          <mxGeometry x="-260" y="270" width="100" height="100" as="geometry" />
        </mxCell>
        <mxCell id="Gq28cxbr4dffxXbNlcwu-17" style="edgeStyle=orthogonalEdgeStyle;rounded=1;orthogonalLoop=1;jettySize=auto;html=1;entryX=0;entryY=0.5;entryDx=0;entryDy=0;" edge="1" parent="Gq28cxbr4dffxXbNlcwu-1" source="Gq28cxbr4dffxXbNlcwu-18" target="Gq28cxbr4dffxXbNlcwu-34">
          <mxGeometry relative="1" as="geometry" />
        </mxCell>
        <mxCell id="Gq28cxbr4dffxXbNlcwu-18" value="Untriaged" style="whiteSpace=wrap;html=1;rounded=1;arcSize=14;strokeWidth=2;" vertex="1" parent="Gq28cxbr4dffxXbNlcwu-1">
          <mxGeometry x="-110" y="290" width="120" height="60" as="geometry" />
        </mxCell>
        <mxCell id="Gq28cxbr4dffxXbNlcwu-19" value="" style="edgeStyle=orthogonalEdgeStyle;rounded=1;orthogonalLoop=1;jettySize=auto;html=1;" edge="1" parent="Gq28cxbr4dffxXbNlcwu-1" target="Gq28cxbr4dffxXbNlcwu-22">
          <mxGeometry relative="1" as="geometry">
            <mxPoint x="703.5999999999999" y="465" as="sourcePoint" />
          </mxGeometry>
        </mxCell>
        <mxCell id="Gq28cxbr4dffxXbNlcwu-25" style="edgeStyle=orthogonalEdgeStyle;rounded=1;orthogonalLoop=1;jettySize=auto;html=1;entryX=0;entryY=0.5;entryDx=0;entryDy=0;" edge="1" parent="Gq28cxbr4dffxXbNlcwu-1" source="Gq28cxbr4dffxXbNlcwu-26" target="Gq28cxbr4dffxXbNlcwu-14">
          <mxGeometry relative="1" as="geometry" />
        </mxCell>
        <mxCell id="Gq28cxbr4dffxXbNlcwu-26" value="(Internal)&lt;br&gt;Tracker" style="rounded=1;whiteSpace=wrap;html=1;absoluteArcSize=1;arcSize=14;strokeWidth=2;" vertex="1" parent="Gq28cxbr4dffxXbNlcwu-1">
          <mxGeometry x="-494" y="270" width="100" height="100" as="geometry" />
        </mxCell>
        <mxCell id="Gq28cxbr4dffxXbNlcwu-27" value="" style="edgeStyle=orthogonalEdgeStyle;rounded=1;orthogonalLoop=1;jettySize=auto;html=1;" edge="1" parent="Gq28cxbr4dffxXbNlcwu-1" source="Gq28cxbr4dffxXbNlcwu-28" target="Gq28cxbr4dffxXbNlcwu-30">
          <mxGeometry relative="1" as="geometry" />
        </mxCell>
        <mxCell id="Gq28cxbr4dffxXbNlcwu-28" value="Trackers" style="whiteSpace=wrap;html=1;rounded=1;arcSize=14;strokeWidth=2;" vertex="1" parent="Gq28cxbr4dffxXbNlcwu-1">
          <mxGeometry x="290" y="290" width="120" height="60" as="geometry" />
        </mxCell>
        <mxCell id="Gq28cxbr4dffxXbNlcwu-29" style="edgeStyle=orthogonalEdgeStyle;rounded=1;orthogonalLoop=1;jettySize=auto;html=1;entryX=0;entryY=0.5;entryDx=0;entryDy=0;" edge="1" parent="Gq28cxbr4dffxXbNlcwu-1" source="Gq28cxbr4dffxXbNlcwu-30" target="Gq28cxbr4dffxXbNlcwu-44">
          <mxGeometry relative="1" as="geometry">
            <mxPoint x="1180" y="320" as="targetPoint" />
          </mxGeometry>
        </mxCell>
        <mxCell id="Gq28cxbr4dffxXbNlcwu-30" value="Incubating" style="whiteSpace=wrap;html=1;rounded=1;arcSize=14;strokeWidth=2;" vertex="1" parent="Gq28cxbr4dffxXbNlcwu-1">
          <mxGeometry x="527" y="290" width="120" height="60" as="geometry" />
        </mxCell>
        <mxCell id="FLWwhRZlE8Z-Lfnb07CD-0" style="edgeStyle=orthogonalEdgeStyle;rounded=0;orthogonalLoop=1;jettySize=auto;html=1;entryX=0;entryY=0.5;entryDx=0;entryDy=0;fillColor=#ffe6cc;strokeColor=#d79b00;" edge="1" parent="Gq28cxbr4dffxXbNlcwu-1" source="Gq28cxbr4dffxXbNlcwu-34" target="Gq28cxbr4dffxXbNlcwu-28">
          <mxGeometry relative="1" as="geometry" />
        </mxCell>
        <mxCell id="FLWwhRZlE8Z-Lfnb07CD-1" value="Yes" style="edgeLabel;html=1;align=center;verticalAlign=middle;resizable=0;points=[];" vertex="1" connectable="0" parent="FLWwhRZlE8Z-Lfnb07CD-0">
          <mxGeometry x="-0.7461" y="-1" relative="1" as="geometry">
            <mxPoint as="offset" />
          </mxGeometry>
        </mxCell>
        <mxCell id="Gq28cxbr4dffxXbNlcwu-34" value="Manual&lt;br&gt;Intervention?" style="rhombus;whiteSpace=wrap;html=1;rounded=1;" vertex="1" parent="Gq28cxbr4dffxXbNlcwu-1">
          <mxGeometry x="90" y="270" width="100" height="100" as="geometry" />
        </mxCell>
        <mxCell id="Gq28cxbr4dffxXbNlcwu-36" value="UX Lead / UI Owner" style="shape=umlActor;verticalLabelPosition=bottom;verticalAlign=top;html=1;outlineConnect=0;rounded=1;" vertex="1" parent="Gq28cxbr4dffxXbNlcwu-1">
          <mxGeometry x="-344" y="226" width="30" height="60" as="geometry" />
        </mxCell>
        <mxCell id="Gq28cxbr4dffxXbNlcwu-39" value="Feature Owner &lt;br&gt;Pre-Triages Tracker" style="text;html=1;align=center;verticalAlign=middle;whiteSpace=wrap;rounded=1;fillColor=none;strokeColor=#6c8ebf;" vertex="1" parent="Gq28cxbr4dffxXbNlcwu-1">
          <mxGeometry x="160" y="360" width="120" height="40" as="geometry" />
        </mxCell>
        <mxCell id="Gq28cxbr4dffxXbNlcwu-40" value="Feature Complete &amp;amp; Merged to Incubation Branch" style="text;html=1;align=center;verticalAlign=middle;whiteSpace=wrap;rounded=1;fillColor=none;strokeColor=#6c8ebf;" vertex="1" parent="Gq28cxbr4dffxXbNlcwu-1">
          <mxGeometry x="390" y="357.5" width="120" height="50" as="geometry" />
        </mxCell>
        <mxCell id="Gq28cxbr4dffxXbNlcwu-41" value="Feature Merged To Main" style="text;html=1;align=center;verticalAlign=middle;whiteSpace=wrap;rounded=1;fillColor=none;strokeColor=#6c8ebf;" vertex="1" parent="Gq28cxbr4dffxXbNlcwu-1">
          <mxGeometry x="628" y="365" width="130" height="35" as="geometry" />
        </mxCell>
        <mxCell id="Gq28cxbr4dffxXbNlcwu-43" value="Dev&lt;br&gt;Feature Owner" style="shape=umlActor;verticalLabelPosition=bottom;verticalAlign=top;html=1;outlineConnect=0;rounded=1;" vertex="1" parent="Gq28cxbr4dffxXbNlcwu-1">
          <mxGeometry x="332" y="145" width="30" height="60" as="geometry" />
        </mxCell>
        <mxCell id="Gq28cxbr4dffxXbNlcwu-44" value="Done&lt;br&gt;(Issue is closed)" style="whiteSpace=wrap;html=1;rounded=1;arcSize=14;strokeWidth=2;shadow=0;" vertex="1" parent="Gq28cxbr4dffxXbNlcwu-1">
          <mxGeometry x="761" y="290" width="120" height="60" as="geometry" />
        </mxCell>
      </root>
    </mxGraphModel>
  </diagram>
  <diagram name="Feature Flow" id="MhDnyAuSFn6GYuuw653c">
    <mxGraphModel dx="2599" dy="1003" grid="0" gridSize="10" guides="1" tooltips="1" connect="1" arrows="1" fold="1" page="0" pageScale="1" pageWidth="850" pageHeight="1100" math="0" shadow="0">
      <root>
        <mxCell id="l_tJHxgit0r5EpojBYQe-0" />
        <mxCell id="l_tJHxgit0r5EpojBYQe-1" parent="l_tJHxgit0r5EpojBYQe-0" />
        <mxCell id="EuPfRRwoJMmRpM6e_q5h-0" value="" style="rounded=0;whiteSpace=wrap;html=1;hachureGap=4;fontFamily=Architects Daughter;fontSource=https%3A%2F%2Ffonts.googleapis.com%2Fcss%3Ffamily%3DArchitects%2BDaughter;fontSize=20;labelBackgroundColor=#0A0A0A;noLabel=1;fillColor=#FFFFFF;" vertex="1" parent="l_tJHxgit0r5EpojBYQe-1">
          <mxGeometry x="-651" y="160" width="1637" height="836" as="geometry" />
        </mxCell>
        <mxCell id="l_tJHxgit0r5EpojBYQe-3" value="" style="swimlane;startSize=0;rounded=1;" vertex="1" parent="l_tJHxgit0r5EpojBYQe-1">
          <mxGeometry x="-344" y="568" width="429" height="246" as="geometry" />
        </mxCell>
        <mxCell id="l_tJHxgit0r5EpojBYQe-4" value="" style="endArrow=none;html=1;rounded=1;strokeWidth=3;dashed=1;" edge="1" parent="l_tJHxgit0r5EpojBYQe-3">
          <mxGeometry width="50" height="50" relative="1" as="geometry">
            <mxPoint x="20.5" y="119" as="sourcePoint" />
            <mxPoint x="130.5" y="119" as="targetPoint" />
          </mxGeometry>
        </mxCell>
        <mxCell id="l_tJHxgit0r5EpojBYQe-5" value="UX Process" style="text;html=1;strokeColor=none;fillColor=none;align=center;verticalAlign=middle;whiteSpace=wrap;rounded=1;" vertex="1" parent="l_tJHxgit0r5EpojBYQe-3">
          <mxGeometry x="20.5" y="89" width="110" height="30" as="geometry" />
        </mxCell>
        <mxCell id="l_tJHxgit0r5EpojBYQe-6" value="Status Name" style="whiteSpace=wrap;html=1;rounded=1;arcSize=14;strokeWidth=2;" vertex="1" parent="l_tJHxgit0r5EpojBYQe-3">
          <mxGeometry x="160.5" y="74" width="120" height="60" as="geometry" />
        </mxCell>
        <mxCell id="l_tJHxgit0r5EpojBYQe-7" value="" style="endArrow=classic;html=1;rounded=1;strokeWidth=3;fillColor=#ffe6cc;strokeColor=#d79b00;endFill=1;" edge="1" parent="l_tJHxgit0r5EpojBYQe-3">
          <mxGeometry width="50" height="50" relative="1" as="geometry">
            <mxPoint x="20.5" y="208.63999999999987" as="sourcePoint" />
            <mxPoint x="130.5" y="208.63999999999987" as="targetPoint" />
          </mxGeometry>
        </mxCell>
        <mxCell id="l_tJHxgit0r5EpojBYQe-8" value="Override Process" style="text;html=1;strokeColor=none;fillColor=none;align=center;verticalAlign=middle;whiteSpace=wrap;rounded=1;" vertex="1" parent="l_tJHxgit0r5EpojBYQe-3">
          <mxGeometry x="20.5" y="178.63999999999987" width="110" height="30" as="geometry" />
        </mxCell>
        <mxCell id="l_tJHxgit0r5EpojBYQe-9" value="Decision" style="rhombus;whiteSpace=wrap;html=1;rounded=1;arcSize=14;strokeWidth=2;" vertex="1" parent="l_tJHxgit0r5EpojBYQe-3">
          <mxGeometry x="180.5" y="154" width="80" height="80" as="geometry" />
        </mxCell>
        <mxCell id="l_tJHxgit0r5EpojBYQe-10" value="&lt;h1&gt;Legend&lt;/h1&gt;" style="text;html=1;strokeColor=none;fillColor=none;spacing=5;spacingTop=-20;whiteSpace=wrap;overflow=hidden;rounded=1;fontStyle=4;align=center;" vertex="1" parent="l_tJHxgit0r5EpojBYQe-3">
          <mxGeometry x="150.5" y="8" width="140" height="40" as="geometry" />
        </mxCell>
        <mxCell id="l_tJHxgit0r5EpojBYQe-11" value="Likely Actor on flow" style="shape=umlActor;verticalLabelPosition=bottom;verticalAlign=top;html=1;outlineConnect=0;rounded=1;" vertex="1" parent="l_tJHxgit0r5EpojBYQe-3">
          <mxGeometry x="340.5" y="64" width="30" height="60" as="geometry" />
        </mxCell>
        <mxCell id="l_tJHxgit0r5EpojBYQe-12" value="Transition Info" style="text;html=1;align=center;verticalAlign=middle;whiteSpace=wrap;rounded=1;fillColor=none;strokeColor=#6c8ebf;" vertex="1" parent="l_tJHxgit0r5EpojBYQe-3">
          <mxGeometry x="290.5" y="178.63999999999987" width="130" height="30" as="geometry" />
        </mxCell>
        <mxCell id="l_tJHxgit0r5EpojBYQe-13" value="" style="edgeStyle=orthogonalEdgeStyle;rounded=1;orthogonalLoop=1;jettySize=auto;html=1;" edge="1" parent="l_tJHxgit0r5EpojBYQe-1" source="l_tJHxgit0r5EpojBYQe-14" target="l_tJHxgit0r5EpojBYQe-20">
          <mxGeometry relative="1" as="geometry" />
        </mxCell>
        <mxCell id="l_tJHxgit0r5EpojBYQe-14" value="Automatically&lt;br&gt;added to the Dashboard&lt;br&gt;Board" style="rounded=1;whiteSpace=wrap;html=1;absoluteArcSize=1;arcSize=14;strokeWidth=2;fillColor=#f8cecc;strokeColor=#b85450;" vertex="1" parent="l_tJHxgit0r5EpojBYQe-1">
          <mxGeometry x="-260" y="270" width="100" height="100" as="geometry" />
        </mxCell>
        <mxCell id="l_tJHxgit0r5EpojBYQe-17" style="edgeStyle=orthogonalEdgeStyle;rounded=1;orthogonalLoop=1;jettySize=auto;html=1;entryX=0;entryY=0.5;entryDx=0;entryDy=0;fillColor=#ffe6cc;strokeColor=#d79b00;exitX=0.5;exitY=1;exitDx=0;exitDy=0;" edge="1" parent="l_tJHxgit0r5EpojBYQe-1" source="l_tJHxgit0r5EpojBYQe-74" target="l_tJHxgit0r5EpojBYQe-66">
          <mxGeometry relative="1" as="geometry">
            <Array as="points">
              <mxPoint x="140" y="780" />
            </Array>
          </mxGeometry>
        </mxCell>
        <mxCell id="l_tJHxgit0r5EpojBYQe-18" value="Yes" style="edgeLabel;html=1;align=center;verticalAlign=middle;resizable=0;points=[];rounded=1;" vertex="1" connectable="0" parent="l_tJHxgit0r5EpojBYQe-17">
          <mxGeometry x="-0.8523" y="-3" relative="1" as="geometry">
            <mxPoint x="3" y="-12" as="offset" />
          </mxGeometry>
        </mxCell>
        <mxCell id="l_tJHxgit0r5EpojBYQe-19" style="edgeStyle=orthogonalEdgeStyle;rounded=1;orthogonalLoop=1;jettySize=auto;html=1;entryX=0;entryY=0.5;entryDx=0;entryDy=0;" edge="1" parent="l_tJHxgit0r5EpojBYQe-1" source="l_tJHxgit0r5EpojBYQe-20" target="l_tJHxgit0r5EpojBYQe-74">
          <mxGeometry relative="1" as="geometry" />
        </mxCell>
        <mxCell id="l_tJHxgit0r5EpojBYQe-20" value="Untriaged" style="whiteSpace=wrap;html=1;rounded=1;arcSize=14;strokeWidth=2;" vertex="1" parent="l_tJHxgit0r5EpojBYQe-1">
          <mxGeometry x="-110" y="290" width="120" height="60" as="geometry" />
        </mxCell>
        <mxCell id="l_tJHxgit0r5EpojBYQe-29" value="" style="edgeStyle=orthogonalEdgeStyle;rounded=1;orthogonalLoop=1;jettySize=auto;html=1;" edge="1" parent="l_tJHxgit0r5EpojBYQe-1" source="l_tJHxgit0r5EpojBYQe-30" target="l_tJHxgit0r5EpojBYQe-38">
          <mxGeometry relative="1" as="geometry" />
        </mxCell>
        <mxCell id="l_tJHxgit0r5EpojBYQe-30" value="Dev To Do" style="whiteSpace=wrap;html=1;rounded=1;arcSize=14;strokeWidth=2;shadow=0;" vertex="1" parent="l_tJHxgit0r5EpojBYQe-1">
          <mxGeometry x="643.5" y="405" width="120" height="60" as="geometry" />
        </mxCell>
        <mxCell id="l_tJHxgit0r5EpojBYQe-37" style="edgeStyle=orthogonalEdgeStyle;rounded=1;orthogonalLoop=1;jettySize=auto;html=1;entryX=0;entryY=0.5;entryDx=0;entryDy=0;exitX=0.5;exitY=1;exitDx=0;exitDy=0;" edge="1" parent="l_tJHxgit0r5EpojBYQe-1" source="l_tJHxgit0r5EpojBYQe-38" target="l_tJHxgit0r5EpojBYQe-105">
          <mxGeometry relative="1" as="geometry">
            <mxPoint x="1090" y="780" as="targetPoint" />
          </mxGeometry>
        </mxCell>
        <mxCell id="l_tJHxgit0r5EpojBYQe-38" value="Dev In Progress" style="whiteSpace=wrap;html=1;rounded=1;arcSize=14;strokeWidth=2;shadow=0;" vertex="1" parent="l_tJHxgit0r5EpojBYQe-1">
          <mxGeometry x="643.5" y="577" width="120" height="60" as="geometry" />
        </mxCell>
        <mxCell id="l_tJHxgit0r5EpojBYQe-48" style="edgeStyle=orthogonalEdgeStyle;rounded=1;orthogonalLoop=1;jettySize=auto;html=1;entryX=0;entryY=0.5;entryDx=0;entryDy=0;" edge="1" parent="l_tJHxgit0r5EpojBYQe-1" source="l_tJHxgit0r5EpojBYQe-49" target="l_tJHxgit0r5EpojBYQe-14">
          <mxGeometry relative="1" as="geometry" />
        </mxCell>
        <mxCell id="l_tJHxgit0r5EpojBYQe-49" value="(Internal)&lt;br&gt;Story" style="rounded=1;whiteSpace=wrap;html=1;absoluteArcSize=1;arcSize=14;strokeWidth=2;" vertex="1" parent="l_tJHxgit0r5EpojBYQe-1">
          <mxGeometry x="-591" y="330" width="100" height="100" as="geometry" />
        </mxCell>
        <mxCell id="l_tJHxgit0r5EpojBYQe-56" style="edgeStyle=orthogonalEdgeStyle;rounded=1;orthogonalLoop=1;jettySize=auto;html=1;entryX=0;entryY=0.5;entryDx=0;entryDy=0;" edge="1" parent="l_tJHxgit0r5EpojBYQe-1" source="l_tJHxgit0r5EpojBYQe-57" target="l_tJHxgit0r5EpojBYQe-14">
          <mxGeometry relative="1" as="geometry" />
        </mxCell>
        <mxCell id="l_tJHxgit0r5EpojBYQe-57" value="(Internal)&lt;br&gt;Tracker" style="rounded=1;whiteSpace=wrap;html=1;absoluteArcSize=1;arcSize=14;strokeWidth=2;" vertex="1" parent="l_tJHxgit0r5EpojBYQe-1">
          <mxGeometry x="-591" y="220" width="100" height="100" as="geometry" />
        </mxCell>
        <mxCell id="l_tJHxgit0r5EpojBYQe-65" value="" style="edgeStyle=orthogonalEdgeStyle;rounded=1;orthogonalLoop=1;jettySize=auto;html=1;" edge="1" parent="l_tJHxgit0r5EpojBYQe-1" source="l_tJHxgit0r5EpojBYQe-66" target="l_tJHxgit0r5EpojBYQe-68">
          <mxGeometry relative="1" as="geometry" />
        </mxCell>
        <mxCell id="l_tJHxgit0r5EpojBYQe-66" value="Trackers" style="whiteSpace=wrap;html=1;rounded=1;arcSize=14;strokeWidth=2;" vertex="1" parent="l_tJHxgit0r5EpojBYQe-1">
          <mxGeometry x="200" y="750" width="120" height="60" as="geometry" />
        </mxCell>
        <mxCell id="l_tJHxgit0r5EpojBYQe-67" style="edgeStyle=orthogonalEdgeStyle;rounded=1;orthogonalLoop=1;jettySize=auto;html=1;entryX=0;entryY=0.5;entryDx=0;entryDy=0;" edge="1" parent="l_tJHxgit0r5EpojBYQe-1" source="l_tJHxgit0r5EpojBYQe-68" target="l_tJHxgit0r5EpojBYQe-105">
          <mxGeometry relative="1" as="geometry">
            <mxPoint x="1090" y="780" as="targetPoint" />
          </mxGeometry>
        </mxCell>
        <mxCell id="l_tJHxgit0r5EpojBYQe-68" value="Incubating" style="whiteSpace=wrap;html=1;rounded=1;arcSize=14;strokeWidth=2;" vertex="1" parent="l_tJHxgit0r5EpojBYQe-1">
          <mxGeometry x="540" y="750" width="120" height="60" as="geometry" />
        </mxCell>
        <mxCell id="l_tJHxgit0r5EpojBYQe-71" value="Dev&lt;br&gt;Feature Owner" style="shape=umlActor;verticalLabelPosition=bottom;verticalAlign=top;html=1;outlineConnect=0;rounded=1;" vertex="1" parent="l_tJHxgit0r5EpojBYQe-1">
          <mxGeometry x="55" y="392" width="30" height="60" as="geometry" />
        </mxCell>
        <mxCell id="kkjYb5-1-v1VhpHuUq9H-0" style="edgeStyle=orthogonalEdgeStyle;rounded=0;orthogonalLoop=1;jettySize=auto;html=1;fillColor=#ffe6cc;strokeColor=#d79b00;" edge="1" parent="l_tJHxgit0r5EpojBYQe-1" source="l_tJHxgit0r5EpojBYQe-74" target="l_tJHxgit0r5EpojBYQe-30">
          <mxGeometry relative="1" as="geometry" />
        </mxCell>
        <mxCell id="kkjYb5-1-v1VhpHuUq9H-1" value="Yes" style="edgeLabel;html=1;align=center;verticalAlign=middle;resizable=0;points=[];" vertex="1" connectable="0" parent="kkjYb5-1-v1VhpHuUq9H-0">
          <mxGeometry x="-0.9079" y="2" relative="1" as="geometry">
            <mxPoint as="offset" />
          </mxGeometry>
        </mxCell>
        <mxCell id="l_tJHxgit0r5EpojBYQe-74" value="Manual&lt;br&gt;Intervention?" style="rhombus;whiteSpace=wrap;html=1;rounded=1;" vertex="1" parent="l_tJHxgit0r5EpojBYQe-1">
          <mxGeometry x="90" y="270" width="100" height="100" as="geometry" />
        </mxCell>
        <mxCell id="l_tJHxgit0r5EpojBYQe-77" value="Dev" style="shape=umlActor;verticalLabelPosition=bottom;verticalAlign=top;html=1;outlineConnect=0;rounded=1;" vertex="1" parent="l_tJHxgit0r5EpojBYQe-1">
          <mxGeometry x="-448" y="320" width="30" height="60" as="geometry" />
        </mxCell>
        <mxCell id="l_tJHxgit0r5EpojBYQe-78" value="UX Lead / UI Owner" style="shape=umlActor;verticalLabelPosition=bottom;verticalAlign=top;html=1;outlineConnect=0;rounded=1;" vertex="1" parent="l_tJHxgit0r5EpojBYQe-1">
          <mxGeometry x="-448" y="210" width="30" height="60" as="geometry" />
        </mxCell>
        <mxCell id="l_tJHxgit0r5EpojBYQe-85" value="Dev Picks Up Work" style="text;html=1;align=center;verticalAlign=middle;whiteSpace=wrap;rounded=1;fillColor=none;strokeColor=#6c8ebf;" vertex="1" parent="l_tJHxgit0r5EpojBYQe-1">
          <mxGeometry x="566" y="480" width="125" height="30" as="geometry" />
        </mxCell>
        <mxCell id="l_tJHxgit0r5EpojBYQe-86" value="Dev Completes Work" style="text;html=1;align=center;verticalAlign=middle;whiteSpace=wrap;rounded=1;fillColor=none;strokeColor=#6c8ebf;" vertex="1" parent="l_tJHxgit0r5EpojBYQe-1">
          <mxGeometry x="563.5" y="655" width="130" height="30" as="geometry" />
        </mxCell>
        <mxCell id="l_tJHxgit0r5EpojBYQe-93" value="Feature Owner &lt;br&gt;Pre-Triages Tracker" style="text;html=1;align=center;verticalAlign=middle;whiteSpace=wrap;rounded=1;fillColor=none;strokeColor=#6c8ebf;" vertex="1" parent="l_tJHxgit0r5EpojBYQe-1">
          <mxGeometry x="10" y="497" width="120" height="40" as="geometry" />
        </mxCell>
        <mxCell id="l_tJHxgit0r5EpojBYQe-95" value="Feature Complete &amp;amp; Merged to Incubation Branch" style="text;html=1;align=center;verticalAlign=middle;whiteSpace=wrap;rounded=1;fillColor=none;strokeColor=#6c8ebf;" vertex="1" parent="l_tJHxgit0r5EpojBYQe-1">
          <mxGeometry x="328" y="795" width="120" height="50" as="geometry" />
        </mxCell>
        <mxCell id="l_tJHxgit0r5EpojBYQe-96" value="Feature Merged To Main" style="text;html=1;align=center;verticalAlign=middle;whiteSpace=wrap;rounded=1;fillColor=none;strokeColor=#6c8ebf;" vertex="1" parent="l_tJHxgit0r5EpojBYQe-1">
          <mxGeometry x="671" y="810" width="130" height="35" as="geometry" />
        </mxCell>
        <mxCell id="l_tJHxgit0r5EpojBYQe-98" value="Dev" style="shape=umlActor;verticalLabelPosition=bottom;verticalAlign=top;html=1;outlineConnect=0;shadow=0;rounded=1;" vertex="1" parent="l_tJHxgit0r5EpojBYQe-1">
          <mxGeometry x="581.5" y="541" width="30" height="60" as="geometry" />
        </mxCell>
        <mxCell id="l_tJHxgit0r5EpojBYQe-100" value="Dev&lt;br&gt;Feature Owner" style="shape=umlActor;verticalLabelPosition=bottom;verticalAlign=top;html=1;outlineConnect=0;rounded=1;" vertex="1" parent="l_tJHxgit0r5EpojBYQe-1">
          <mxGeometry x="510" y="840" width="30" height="60" as="geometry" />
        </mxCell>
        <mxCell id="l_tJHxgit0r5EpojBYQe-105" value="Done&lt;br&gt;(Issue is closed)" style="whiteSpace=wrap;html=1;rounded=1;arcSize=14;strokeWidth=2;shadow=0;" vertex="1" parent="l_tJHxgit0r5EpojBYQe-1">
          <mxGeometry x="806.5" y="750" width="120" height="60" as="geometry" />
        </mxCell>
        <mxCell id="l_tJHxgit0r5EpojBYQe-108" value="Feature Owner &lt;br&gt;Pre-Triages Story" style="text;html=1;align=center;verticalAlign=middle;whiteSpace=wrap;rounded=1;fillColor=none;strokeColor=#6c8ebf;" vertex="1" parent="l_tJHxgit0r5EpojBYQe-1">
          <mxGeometry x="457" y="243" width="120" height="40" as="geometry" />
        </mxCell>
        <mxCell id="l_tJHxgit0r5EpojBYQe-109" value="Dev&lt;br&gt;Feature Owner" style="shape=umlActor;verticalLabelPosition=bottom;verticalAlign=top;html=1;outlineConnect=0;rounded=1;" vertex="1" parent="l_tJHxgit0r5EpojBYQe-1">
          <mxGeometry x="403" y="213" width="30" height="60" as="geometry" />
        </mxCell>
      </root>
    </mxGraphModel>
  </diagram>
  <diagram name="Standard Flow" id="NVpA8fe61vHQ1PqkaX90">
    <mxGraphModel dx="3598" dy="1960" grid="0" gridSize="10" guides="1" tooltips="1" connect="1" arrows="1" fold="1" page="0" pageScale="1" pageWidth="850" pageHeight="1100" math="0" shadow="0">
      <root>
        <mxCell id="iqN7Oi2I1R34jZO3CWCt-0" />
        <mxCell id="iqN7Oi2I1R34jZO3CWCt-1" parent="iqN7Oi2I1R34jZO3CWCt-0" />
        <mxCell id="PJBRolDhdYlKyinylkBI-0" value="" style="rounded=0;whiteSpace=wrap;html=1;hachureGap=4;fontFamily=Architects Daughter;fontSource=https%3A%2F%2Ffonts.googleapis.com%2Fcss%3Ffamily%3DArchitects%2BDaughter;fontSize=20;labelBackgroundColor=#0A0A0A;noLabel=1;fillColor=#FFFFFF;" vertex="1" parent="iqN7Oi2I1R34jZO3CWCt-1">
          <mxGeometry x="-550" y="-105" width="1686" height="974" as="geometry" />
        </mxCell>
        <mxCell id="iqN7Oi2I1R34jZO3CWCt-13" value="" style="edgeStyle=orthogonalEdgeStyle;rounded=1;orthogonalLoop=1;jettySize=auto;html=1;" edge="1" parent="iqN7Oi2I1R34jZO3CWCt-1" source="iqN7Oi2I1R34jZO3CWCt-14" target="iqN7Oi2I1R34jZO3CWCt-20">
          <mxGeometry relative="1" as="geometry" />
        </mxCell>
        <mxCell id="iqN7Oi2I1R34jZO3CWCt-14" value="Automatically&lt;br&gt;added to the Dashboard&lt;br&gt;Board" style="rounded=1;whiteSpace=wrap;html=1;absoluteArcSize=1;arcSize=14;strokeWidth=2;fillColor=#f8cecc;strokeColor=#b85450;" vertex="1" parent="iqN7Oi2I1R34jZO3CWCt-1">
          <mxGeometry x="-260" y="270" width="100" height="100" as="geometry" />
        </mxCell>
        <mxCell id="iqN7Oi2I1R34jZO3CWCt-19" style="edgeStyle=orthogonalEdgeStyle;rounded=1;orthogonalLoop=1;jettySize=auto;html=1;entryX=0;entryY=0.5;entryDx=0;entryDy=0;" edge="1" parent="iqN7Oi2I1R34jZO3CWCt-1" source="iqN7Oi2I1R34jZO3CWCt-20" target="iqN7Oi2I1R34jZO3CWCt-74">
          <mxGeometry relative="1" as="geometry" />
        </mxCell>
        <mxCell id="iqN7Oi2I1R34jZO3CWCt-20" value="Untriaged" style="whiteSpace=wrap;html=1;rounded=1;arcSize=14;strokeWidth=2;" vertex="1" parent="iqN7Oi2I1R34jZO3CWCt-1">
          <mxGeometry x="-110" y="290" width="120" height="60" as="geometry" />
        </mxCell>
        <mxCell id="iqN7Oi2I1R34jZO3CWCt-21" value="" style="edgeStyle=orthogonalEdgeStyle;rounded=1;orthogonalLoop=1;jettySize=auto;html=1;" edge="1" parent="iqN7Oi2I1R34jZO3CWCt-1" source="iqN7Oi2I1R34jZO3CWCt-26" target="iqN7Oi2I1R34jZO3CWCt-28">
          <mxGeometry relative="1" as="geometry" />
        </mxCell>
        <mxCell id="iqN7Oi2I1R34jZO3CWCt-22" value="Yes" style="edgeLabel;html=1;align=center;verticalAlign=middle;resizable=0;points=[];rounded=1;" vertex="1" connectable="0" parent="iqN7Oi2I1R34jZO3CWCt-21">
          <mxGeometry x="-0.1758" y="1" relative="1" as="geometry">
            <mxPoint x="1" y="113" as="offset" />
          </mxGeometry>
        </mxCell>
        <mxCell id="iqN7Oi2I1R34jZO3CWCt-23" value="" style="edgeStyle=orthogonalEdgeStyle;rounded=1;orthogonalLoop=1;jettySize=auto;html=1;" edge="1" parent="iqN7Oi2I1R34jZO3CWCt-1" source="iqN7Oi2I1R34jZO3CWCt-26" target="iqN7Oi2I1R34jZO3CWCt-30">
          <mxGeometry relative="1" as="geometry" />
        </mxCell>
        <mxCell id="iqN7Oi2I1R34jZO3CWCt-24" value="No" style="edgeLabel;html=1;align=center;verticalAlign=middle;resizable=0;points=[];rounded=1;" vertex="1" connectable="0" parent="iqN7Oi2I1R34jZO3CWCt-23">
          <mxGeometry x="-0.2464" y="3" relative="1" as="geometry">
            <mxPoint x="-174" y="3" as="offset" />
          </mxGeometry>
        </mxCell>
        <mxCell id="iqN7Oi2I1R34jZO3CWCt-25" value="No" style="edgeLabel;html=1;align=center;verticalAlign=middle;resizable=0;points=[];rounded=1;" vertex="1" connectable="0" parent="iqN7Oi2I1R34jZO3CWCt-23">
          <mxGeometry x="-0.7947" y="3" relative="1" as="geometry">
            <mxPoint x="-9" y="2" as="offset" />
          </mxGeometry>
        </mxCell>
        <mxCell id="iqN7Oi2I1R34jZO3CWCt-26" value="Needs UX?" style="rhombus;whiteSpace=wrap;html=1;rounded=1;arcSize=14;strokeWidth=2;" vertex="1" parent="iqN7Oi2I1R34jZO3CWCt-1">
          <mxGeometry x="430" y="395" width="80" height="80" as="geometry" />
        </mxCell>
        <mxCell id="iqN7Oi2I1R34jZO3CWCt-27" style="edgeStyle=orthogonalEdgeStyle;rounded=1;orthogonalLoop=1;jettySize=auto;html=1;entryX=0;entryY=0.5;entryDx=0;entryDy=0;dashed=1;" edge="1" parent="iqN7Oi2I1R34jZO3CWCt-1" source="iqN7Oi2I1R34jZO3CWCt-28" target="iqN7Oi2I1R34jZO3CWCt-53">
          <mxGeometry relative="1" as="geometry" />
        </mxCell>
        <mxCell id="iqN7Oi2I1R34jZO3CWCt-28" value="UX Backlog" style="whiteSpace=wrap;html=1;rounded=1;arcSize=14;strokeWidth=2;dashed=1;" vertex="1" parent="iqN7Oi2I1R34jZO3CWCt-1">
          <mxGeometry x="410" y="98" width="120" height="60" as="geometry" />
        </mxCell>
        <mxCell id="iqN7Oi2I1R34jZO3CWCt-29" value="" style="edgeStyle=orthogonalEdgeStyle;rounded=1;orthogonalLoop=1;jettySize=auto;html=1;" edge="1" parent="iqN7Oi2I1R34jZO3CWCt-1" source="iqN7Oi2I1R34jZO3CWCt-30" target="iqN7Oi2I1R34jZO3CWCt-38">
          <mxGeometry relative="1" as="geometry" />
        </mxCell>
        <mxCell id="iqN7Oi2I1R34jZO3CWCt-30" value="Dev To Do" style="whiteSpace=wrap;html=1;rounded=1;arcSize=14;strokeWidth=2;shadow=0;" vertex="1" parent="iqN7Oi2I1R34jZO3CWCt-1">
          <mxGeometry x="900" y="405" width="120" height="60" as="geometry" />
        </mxCell>
        <mxCell id="iqN7Oi2I1R34jZO3CWCt-31" style="edgeStyle=orthogonalEdgeStyle;rounded=1;orthogonalLoop=1;jettySize=auto;html=1;entryX=0;entryY=0.5;entryDx=0;entryDy=0;dashed=1;" edge="1" parent="iqN7Oi2I1R34jZO3CWCt-1" source="iqN7Oi2I1R34jZO3CWCt-32" target="iqN7Oi2I1R34jZO3CWCt-36">
          <mxGeometry relative="1" as="geometry" />
        </mxCell>
        <mxCell id="iqN7Oi2I1R34jZO3CWCt-32" value="UX In Progress" style="whiteSpace=wrap;html=1;rounded=1;arcSize=14;strokeWidth=2;dashed=1;" vertex="1" parent="iqN7Oi2I1R34jZO3CWCt-1">
          <mxGeometry x="730" y="98" width="120" height="60" as="geometry" />
        </mxCell>
        <mxCell id="iqN7Oi2I1R34jZO3CWCt-34" value="No" style="edgeStyle=orthogonalEdgeStyle;rounded=1;orthogonalLoop=1;jettySize=auto;html=1;entryX=0.5;entryY=0;entryDx=0;entryDy=0;dashed=1;" edge="1" parent="iqN7Oi2I1R34jZO3CWCt-1" source="iqN7Oi2I1R34jZO3CWCt-36" target="iqN7Oi2I1R34jZO3CWCt-102">
          <mxGeometry x="-0.6889" relative="1" as="geometry">
            <mxPoint x="960" y="155" as="targetPoint" />
            <mxPoint as="offset" />
          </mxGeometry>
        </mxCell>
        <mxCell id="iqN7Oi2I1R34jZO3CWCt-35" value="No" style="edgeLabel;html=1;align=center;verticalAlign=middle;resizable=0;points=[];rounded=1;" vertex="1" connectable="0" parent="iqN7Oi2I1R34jZO3CWCt-34">
          <mxGeometry x="0.0198" y="-1" relative="1" as="geometry">
            <mxPoint x="1" y="-77" as="offset" />
          </mxGeometry>
        </mxCell>
        <mxCell id="iqN7Oi2I1R34jZO3CWCt-36" value="Internal&lt;br&gt;UX?" style="rhombus;whiteSpace=wrap;html=1;rounded=1;arcSize=14;strokeWidth=2;dashed=1;" vertex="1" parent="iqN7Oi2I1R34jZO3CWCt-1">
          <mxGeometry x="920" y="88" width="80" height="80" as="geometry" />
        </mxCell>
        <mxCell id="iqN7Oi2I1R34jZO3CWCt-37" style="edgeStyle=orthogonalEdgeStyle;rounded=1;orthogonalLoop=1;jettySize=auto;html=1;exitX=0.5;exitY=1;exitDx=0;exitDy=0;" edge="1" parent="iqN7Oi2I1R34jZO3CWCt-1" source="iqN7Oi2I1R34jZO3CWCt-38" target="iqN7Oi2I1R34jZO3CWCt-105">
          <mxGeometry relative="1" as="geometry">
            <mxPoint x="1090" y="780" as="targetPoint" />
            <Array as="points" />
          </mxGeometry>
        </mxCell>
        <mxCell id="iqN7Oi2I1R34jZO3CWCt-38" value="Dev In Progress" style="whiteSpace=wrap;html=1;rounded=1;arcSize=14;strokeWidth=2;shadow=0;" vertex="1" parent="iqN7Oi2I1R34jZO3CWCt-1">
          <mxGeometry x="900" y="577" width="120" height="60" as="geometry" />
        </mxCell>
        <mxCell id="iqN7Oi2I1R34jZO3CWCt-39" value="" style="edgeStyle=orthogonalEdgeStyle;rounded=1;orthogonalLoop=1;jettySize=auto;html=1;entryX=0.5;entryY=1;entryDx=0;entryDy=0;" edge="1" parent="iqN7Oi2I1R34jZO3CWCt-1" source="iqN7Oi2I1R34jZO3CWCt-43" target="iqN7Oi2I1R34jZO3CWCt-26">
          <mxGeometry relative="1" as="geometry">
            <mxPoint x="370" y="460" as="targetPoint" />
          </mxGeometry>
        </mxCell>
        <mxCell id="iqN7Oi2I1R34jZO3CWCt-40" value="Yes" style="edgeLabel;html=1;align=center;verticalAlign=middle;resizable=0;points=[];rounded=1;" vertex="1" connectable="0" parent="iqN7Oi2I1R34jZO3CWCt-39">
          <mxGeometry x="-0.5698" y="-1" relative="1" as="geometry">
            <mxPoint x="-1" y="8" as="offset" />
          </mxGeometry>
        </mxCell>
        <mxCell id="iqN7Oi2I1R34jZO3CWCt-41" style="edgeStyle=orthogonalEdgeStyle;rounded=1;orthogonalLoop=1;jettySize=auto;html=1;entryX=0;entryY=0.5;entryDx=0;entryDy=0;" edge="1" parent="iqN7Oi2I1R34jZO3CWCt-1" source="iqN7Oi2I1R34jZO3CWCt-43" target="iqN7Oi2I1R34jZO3CWCt-105">
          <mxGeometry relative="1" as="geometry">
            <mxPoint x="670" y="620" as="targetPoint" />
          </mxGeometry>
        </mxCell>
        <mxCell id="iqN7Oi2I1R34jZO3CWCt-42" value="No" style="edgeLabel;html=1;align=center;verticalAlign=middle;resizable=0;points=[];rounded=1;" vertex="1" connectable="0" parent="iqN7Oi2I1R34jZO3CWCt-41">
          <mxGeometry x="-0.8871" relative="1" as="geometry">
            <mxPoint x="-20" as="offset" />
          </mxGeometry>
        </mxCell>
        <mxCell id="iqN7Oi2I1R34jZO3CWCt-43" value="Valid&lt;br&gt;Issue?" style="rhombus;whiteSpace=wrap;html=1;rounded=1;arcSize=14;strokeWidth=2;" vertex="1" parent="iqN7Oi2I1R34jZO3CWCt-1">
          <mxGeometry x="430" y="580" width="80" height="80" as="geometry" />
        </mxCell>
        <mxCell id="iqN7Oi2I1R34jZO3CWCt-44" style="edgeStyle=orthogonalEdgeStyle;rounded=1;orthogonalLoop=1;jettySize=auto;html=1;entryX=0;entryY=0.5;entryDx=0;entryDy=0;" edge="1" parent="iqN7Oi2I1R34jZO3CWCt-1" source="iqN7Oi2I1R34jZO3CWCt-45" target="iqN7Oi2I1R34jZO3CWCt-14">
          <mxGeometry relative="1" as="geometry" />
        </mxCell>
        <mxCell id="iqN7Oi2I1R34jZO3CWCt-45" value="Bug" style="rounded=1;whiteSpace=wrap;html=1;absoluteArcSize=1;arcSize=14;strokeWidth=2;" vertex="1" parent="iqN7Oi2I1R34jZO3CWCt-1">
          <mxGeometry x="-490" y="215" width="100" height="100" as="geometry" />
        </mxCell>
        <mxCell id="iqN7Oi2I1R34jZO3CWCt-46" style="edgeStyle=orthogonalEdgeStyle;rounded=1;orthogonalLoop=1;jettySize=auto;html=1;entryX=0;entryY=0.5;entryDx=0;entryDy=0;" edge="1" parent="iqN7Oi2I1R34jZO3CWCt-1" source="iqN7Oi2I1R34jZO3CWCt-47" target="iqN7Oi2I1R34jZO3CWCt-14">
          <mxGeometry relative="1" as="geometry" />
        </mxCell>
        <mxCell id="iqN7Oi2I1R34jZO3CWCt-47" value="Feature&lt;br&gt;Request" style="rounded=1;whiteSpace=wrap;html=1;absoluteArcSize=1;arcSize=14;strokeWidth=2;" vertex="1" parent="iqN7Oi2I1R34jZO3CWCt-1">
          <mxGeometry x="-490" y="325" width="100" height="100" as="geometry" />
        </mxCell>
        <mxCell id="iqN7Oi2I1R34jZO3CWCt-52" style="edgeStyle=orthogonalEdgeStyle;rounded=1;orthogonalLoop=1;jettySize=auto;html=1;entryX=0;entryY=0.5;entryDx=0;entryDy=0;dashed=1;" edge="1" parent="iqN7Oi2I1R34jZO3CWCt-1" source="iqN7Oi2I1R34jZO3CWCt-53" target="iqN7Oi2I1R34jZO3CWCt-32">
          <mxGeometry relative="1" as="geometry" />
        </mxCell>
        <mxCell id="iqN7Oi2I1R34jZO3CWCt-53" value="UX Next" style="whiteSpace=wrap;html=1;rounded=1;arcSize=14;strokeWidth=2;dashed=1;" vertex="1" parent="iqN7Oi2I1R34jZO3CWCt-1">
          <mxGeometry x="570" y="98" width="120" height="60" as="geometry" />
        </mxCell>
        <mxCell id="iqN7Oi2I1R34jZO3CWCt-58" value="" style="edgeStyle=orthogonalEdgeStyle;rounded=1;orthogonalLoop=1;jettySize=auto;html=1;" edge="1" parent="iqN7Oi2I1R34jZO3CWCt-1" source="iqN7Oi2I1R34jZO3CWCt-59" target="iqN7Oi2I1R34jZO3CWCt-64">
          <mxGeometry relative="1" as="geometry" />
        </mxCell>
        <mxCell id="iqN7Oi2I1R34jZO3CWCt-59" value="Wait for&lt;br&gt;Triage Team*" style="shape=trapezoid;perimeter=trapezoidPerimeter;whiteSpace=wrap;html=1;fixedSize=1;rounded=1;arcSize=14;strokeWidth=2;" vertex="1" parent="iqN7Oi2I1R34jZO3CWCt-1">
          <mxGeometry x="200" y="450" width="120" height="60" as="geometry" />
        </mxCell>
        <mxCell id="iqN7Oi2I1R34jZO3CWCt-60" style="edgeStyle=orthogonalEdgeStyle;rounded=1;orthogonalLoop=1;jettySize=auto;html=1;entryX=0;entryY=0.5;entryDx=0;entryDy=0;" edge="1" parent="iqN7Oi2I1R34jZO3CWCt-1" source="iqN7Oi2I1R34jZO3CWCt-64" target="iqN7Oi2I1R34jZO3CWCt-43">
          <mxGeometry relative="1" as="geometry" />
        </mxCell>
        <mxCell id="iqN7Oi2I1R34jZO3CWCt-61" value="No" style="edgeLabel;html=1;align=center;verticalAlign=middle;resizable=0;points=[];rounded=1;" vertex="1" connectable="0" parent="iqN7Oi2I1R34jZO3CWCt-60">
          <mxGeometry x="-0.1422" y="3" relative="1" as="geometry">
            <mxPoint x="-36" y="3" as="offset" />
          </mxGeometry>
        </mxCell>
        <mxCell id="iqN7Oi2I1R34jZO3CWCt-64" value="Is a&lt;br&gt;Tracker?" style="rhombus;whiteSpace=wrap;html=1;rounded=1;arcSize=14;strokeWidth=2;" vertex="1" parent="iqN7Oi2I1R34jZO3CWCt-1">
          <mxGeometry x="220" y="580" width="80" height="80" as="geometry" />
        </mxCell>
        <mxCell id="iqN7Oi2I1R34jZO3CWCt-65" value="" style="edgeStyle=orthogonalEdgeStyle;rounded=1;orthogonalLoop=1;jettySize=auto;html=1;" edge="1" parent="iqN7Oi2I1R34jZO3CWCt-1" target="iqN7Oi2I1R34jZO3CWCt-68">
          <mxGeometry relative="1" as="geometry">
            <mxPoint x="320" y="780" as="sourcePoint" />
          </mxGeometry>
        </mxCell>
        <mxCell id="iqN7Oi2I1R34jZO3CWCt-69" value="* Mondays and Wednesdays are triage days" style="text;html=1;strokeColor=none;fillColor=none;align=center;verticalAlign=middle;whiteSpace=wrap;rounded=1;" vertex="1" parent="iqN7Oi2I1R34jZO3CWCt-1">
          <mxGeometry x="309" y="447" width="110" height="50" as="geometry" />
        </mxCell>
        <mxCell id="iqN7Oi2I1R34jZO3CWCt-72" style="edgeStyle=orthogonalEdgeStyle;rounded=1;orthogonalLoop=1;jettySize=auto;html=1;entryX=0.5;entryY=0;entryDx=0;entryDy=0;exitX=1;exitY=0.5;exitDx=0;exitDy=0;" edge="1" parent="iqN7Oi2I1R34jZO3CWCt-1" source="iqN7Oi2I1R34jZO3CWCt-74" target="iqN7Oi2I1R34jZO3CWCt-59">
          <mxGeometry relative="1" as="geometry">
            <Array as="points">
              <mxPoint x="260" y="350" />
              <mxPoint x="260" y="350" />
            </Array>
          </mxGeometry>
        </mxCell>
        <mxCell id="iqN7Oi2I1R34jZO3CWCt-73" value="No" style="edgeLabel;html=1;align=center;verticalAlign=middle;resizable=0;points=[];rounded=1;" vertex="1" connectable="0" parent="iqN7Oi2I1R34jZO3CWCt-72">
          <mxGeometry x="-0.5808" relative="1" as="geometry">
            <mxPoint x="-12" as="offset" />
          </mxGeometry>
        </mxCell>
        <mxCell id="iqN7Oi2I1R34jZO3CWCt-74" value="Manual&lt;br&gt;Intervention?" style="rhombus;whiteSpace=wrap;html=1;rounded=1;" vertex="1" parent="iqN7Oi2I1R34jZO3CWCt-1">
          <mxGeometry x="90" y="270" width="100" height="100" as="geometry" />
        </mxCell>
        <mxCell id="iqN7Oi2I1R34jZO3CWCt-79" value="Community&lt;br&gt;Backend Dev&lt;br&gt;UI&lt;br&gt;UX&lt;br&gt;etc..." style="shape=umlActor;verticalLabelPosition=bottom;verticalAlign=top;html=1;outlineConnect=0;rounded=1;" vertex="1" parent="iqN7Oi2I1R34jZO3CWCt-1">
          <mxGeometry x="-350" y="119" width="30" height="60" as="geometry" />
        </mxCell>
        <mxCell id="iqN7Oi2I1R34jZO3CWCt-80" value="UX Lead Planning" style="text;html=1;align=center;verticalAlign=middle;whiteSpace=wrap;rounded=1;fillColor=none;strokeColor=#6c8ebf;" vertex="1" parent="iqN7Oi2I1R34jZO3CWCt-1">
          <mxGeometry x="490" y="63" width="110" height="30" as="geometry" />
        </mxCell>
        <mxCell id="iqN7Oi2I1R34jZO3CWCt-81" value="UX Picks Up Work" style="text;html=1;align=center;verticalAlign=middle;whiteSpace=wrap;rounded=1;fillColor=none;strokeColor=#6c8ebf;" vertex="1" parent="iqN7Oi2I1R34jZO3CWCt-1">
          <mxGeometry x="660" y="63" width="110" height="30" as="geometry" />
        </mxCell>
        <mxCell id="iqN7Oi2I1R34jZO3CWCt-82" value="UX Work Complete" style="text;html=1;align=center;verticalAlign=middle;whiteSpace=wrap;rounded=1;fillColor=none;strokeColor=#6c8ebf;" vertex="1" parent="iqN7Oi2I1R34jZO3CWCt-1">
          <mxGeometry x="830" y="63" width="120" height="30" as="geometry" />
        </mxCell>
        <mxCell id="iqN7Oi2I1R34jZO3CWCt-83" value="Dev Work Needed" style="text;html=1;align=center;verticalAlign=middle;whiteSpace=wrap;rounded=1;fillColor=none;strokeColor=#6c8ebf;" vertex="1" parent="iqN7Oi2I1R34jZO3CWCt-1">
          <mxGeometry x="964" y="191" width="110" height="30" as="geometry" />
        </mxCell>
        <mxCell id="iqN7Oi2I1R34jZO3CWCt-85" value="Dev Picks Up Work" style="text;html=1;align=center;verticalAlign=middle;whiteSpace=wrap;rounded=1;fillColor=none;strokeColor=#6c8ebf;" vertex="1" parent="iqN7Oi2I1R34jZO3CWCt-1">
          <mxGeometry x="822.5" y="480" width="125" height="30" as="geometry" />
        </mxCell>
        <mxCell id="iqN7Oi2I1R34jZO3CWCt-86" value="Dev Completes Work" style="text;html=1;align=center;verticalAlign=middle;whiteSpace=wrap;rounded=1;fillColor=none;strokeColor=#6c8ebf;" vertex="1" parent="iqN7Oi2I1R34jZO3CWCt-1">
          <mxGeometry x="820" y="655" width="130" height="30" as="geometry" />
        </mxCell>
        <mxCell id="iqN7Oi2I1R34jZO3CWCt-87" value="UX Already Determined&lt;br&gt;or&lt;br&gt;No UX Needed" style="text;html=1;align=center;verticalAlign=middle;whiteSpace=wrap;rounded=1;fillColor=none;strokeColor=#6c8ebf;" vertex="1" parent="iqN7Oi2I1R34jZO3CWCt-1">
          <mxGeometry x="530" y="370" width="170" height="50" as="geometry" />
        </mxCell>
        <mxCell id="iqN7Oi2I1R34jZO3CWCt-88" value="Work Needs UX Before Dev" style="text;html=1;align=center;verticalAlign=middle;whiteSpace=wrap;rounded=1;fillColor=none;strokeColor=#6c8ebf;" vertex="1" parent="iqN7Oi2I1R34jZO3CWCt-1">
          <mxGeometry x="345" y="345" width="110" height="40" as="geometry" />
        </mxCell>
        <mxCell id="iqN7Oi2I1R34jZO3CWCt-89" value="Valid Issue" style="text;html=1;align=center;verticalAlign=middle;whiteSpace=wrap;rounded=1;fillColor=none;strokeColor=#6c8ebf;" vertex="1" parent="iqN7Oi2I1R34jZO3CWCt-1">
          <mxGeometry x="485" y="547" width="80" height="30" as="geometry" />
        </mxCell>
        <mxCell id="iqN7Oi2I1R34jZO3CWCt-90" value="Not A Dashboard Desired Change" style="text;html=1;align=center;verticalAlign=middle;whiteSpace=wrap;rounded=1;fillColor=none;strokeColor=#6c8ebf;" vertex="1" parent="iqN7Oi2I1R34jZO3CWCt-1">
          <mxGeometry x="510" y="637" width="110" height="40" as="geometry" />
        </mxCell>
        <mxCell id="iqN7Oi2I1R34jZO3CWCt-91" value="Non-Tracker Issue" style="text;html=1;align=center;verticalAlign=middle;whiteSpace=wrap;rounded=1;fillColor=none;strokeColor=#6c8ebf;" vertex="1" parent="iqN7Oi2I1R34jZO3CWCt-1">
          <mxGeometry x="303" y="571" width="80" height="40" as="geometry" />
        </mxCell>
        <mxCell id="iqN7Oi2I1R34jZO3CWCt-97" value="UX" style="shape=umlActor;verticalLabelPosition=bottom;verticalAlign=top;html=1;outlineConnect=0;rounded=1;" vertex="1" parent="iqN7Oi2I1R34jZO3CWCt-1">
          <mxGeometry x="690" y="-42" width="30" height="60" as="geometry" />
        </mxCell>
        <mxCell id="iqN7Oi2I1R34jZO3CWCt-98" value="Dev" style="shape=umlActor;verticalLabelPosition=bottom;verticalAlign=top;html=1;outlineConnect=0;shadow=0;rounded=1;" vertex="1" parent="iqN7Oi2I1R34jZO3CWCt-1">
          <mxGeometry x="838" y="541" width="30" height="60" as="geometry" />
        </mxCell>
        <mxCell id="iqN7Oi2I1R34jZO3CWCt-101" style="edgeStyle=orthogonalEdgeStyle;rounded=1;orthogonalLoop=1;jettySize=auto;html=1;entryX=0.5;entryY=0;entryDx=0;entryDy=0;" edge="1" parent="iqN7Oi2I1R34jZO3CWCt-1" source="iqN7Oi2I1R34jZO3CWCt-102" target="iqN7Oi2I1R34jZO3CWCt-30">
          <mxGeometry relative="1" as="geometry" />
        </mxCell>
        <mxCell id="iqN7Oi2I1R34jZO3CWCt-102" value="Dev Ready" style="whiteSpace=wrap;html=1;rounded=1;arcSize=14;strokeWidth=2;shadow=0;" vertex="1" parent="iqN7Oi2I1R34jZO3CWCt-1">
          <mxGeometry x="900" y="258" width="120" height="60" as="geometry" />
        </mxCell>
        <mxCell id="iqN7Oi2I1R34jZO3CWCt-103" value="Advisor&lt;br&gt;Sign off" style="shape=umlActor;verticalLabelPosition=bottom;verticalAlign=top;html=1;outlineConnect=0;shadow=0;rounded=1;" vertex="1" parent="iqN7Oi2I1R34jZO3CWCt-1">
          <mxGeometry x="843" y="228" width="30" height="60" as="geometry" />
        </mxCell>
        <mxCell id="iqN7Oi2I1R34jZO3CWCt-104" value="Ready for Dev" style="text;html=1;align=center;verticalAlign=middle;whiteSpace=wrap;rounded=1;fillColor=none;strokeColor=#6c8ebf;" vertex="1" parent="iqN7Oi2I1R34jZO3CWCt-1">
          <mxGeometry x="835" y="331" width="110" height="30" as="geometry" />
        </mxCell>
        <mxCell id="iqN7Oi2I1R34jZO3CWCt-105" value="Done&lt;br&gt;(Issue is closed)" style="whiteSpace=wrap;html=1;rounded=1;arcSize=14;strokeWidth=2;shadow=0;" vertex="1" parent="iqN7Oi2I1R34jZO3CWCt-1">
          <mxGeometry x="900" y="747" width="120" height="60" as="geometry" />
        </mxCell>
        <mxCell id="kwPPlmETn_7wv_7W3cQE-0" value="" style="swimlane;startSize=0;rounded=1;" vertex="1" parent="iqN7Oi2I1R34jZO3CWCt-1">
          <mxGeometry x="-344" y="568" width="429" height="246" as="geometry" />
        </mxCell>
        <mxCell id="kwPPlmETn_7wv_7W3cQE-1" value="" style="endArrow=none;html=1;rounded=1;strokeWidth=3;dashed=1;" edge="1" parent="kwPPlmETn_7wv_7W3cQE-0">
          <mxGeometry width="50" height="50" relative="1" as="geometry">
            <mxPoint x="20.5" y="119" as="sourcePoint" />
            <mxPoint x="130.5" y="119" as="targetPoint" />
          </mxGeometry>
        </mxCell>
        <mxCell id="kwPPlmETn_7wv_7W3cQE-2" value="UX Process" style="text;html=1;strokeColor=none;fillColor=none;align=center;verticalAlign=middle;whiteSpace=wrap;rounded=1;" vertex="1" parent="kwPPlmETn_7wv_7W3cQE-0">
          <mxGeometry x="20.5" y="89" width="110" height="30" as="geometry" />
        </mxCell>
        <mxCell id="kwPPlmETn_7wv_7W3cQE-3" value="Status Name" style="whiteSpace=wrap;html=1;rounded=1;arcSize=14;strokeWidth=2;" vertex="1" parent="kwPPlmETn_7wv_7W3cQE-0">
          <mxGeometry x="160.5" y="74" width="120" height="60" as="geometry" />
        </mxCell>
        <mxCell id="kwPPlmETn_7wv_7W3cQE-4" value="" style="endArrow=classic;html=1;rounded=1;strokeWidth=3;fillColor=#ffe6cc;strokeColor=#d79b00;endFill=1;" edge="1" parent="kwPPlmETn_7wv_7W3cQE-0">
          <mxGeometry width="50" height="50" relative="1" as="geometry">
            <mxPoint x="20.5" y="208.63999999999987" as="sourcePoint" />
            <mxPoint x="130.5" y="208.63999999999987" as="targetPoint" />
          </mxGeometry>
        </mxCell>
        <mxCell id="kwPPlmETn_7wv_7W3cQE-5" value="Override Process" style="text;html=1;strokeColor=none;fillColor=none;align=center;verticalAlign=middle;whiteSpace=wrap;rounded=1;" vertex="1" parent="kwPPlmETn_7wv_7W3cQE-0">
          <mxGeometry x="20.5" y="178.63999999999987" width="110" height="30" as="geometry" />
        </mxCell>
        <mxCell id="kwPPlmETn_7wv_7W3cQE-6" value="Decision" style="rhombus;whiteSpace=wrap;html=1;rounded=1;arcSize=14;strokeWidth=2;" vertex="1" parent="kwPPlmETn_7wv_7W3cQE-0">
          <mxGeometry x="180.5" y="154" width="80" height="80" as="geometry" />
        </mxCell>
        <mxCell id="kwPPlmETn_7wv_7W3cQE-7" value="&lt;h1&gt;Legend&lt;/h1&gt;" style="text;html=1;strokeColor=none;fillColor=none;spacing=5;spacingTop=-20;whiteSpace=wrap;overflow=hidden;rounded=1;fontStyle=4;align=center;" vertex="1" parent="kwPPlmETn_7wv_7W3cQE-0">
          <mxGeometry x="150.5" y="8" width="140" height="40" as="geometry" />
        </mxCell>
        <mxCell id="kwPPlmETn_7wv_7W3cQE-8" value="Likely Actor on flow" style="shape=umlActor;verticalLabelPosition=bottom;verticalAlign=top;html=1;outlineConnect=0;rounded=1;" vertex="1" parent="kwPPlmETn_7wv_7W3cQE-0">
          <mxGeometry x="340.5" y="64" width="30" height="60" as="geometry" />
        </mxCell>
        <mxCell id="kwPPlmETn_7wv_7W3cQE-9" value="Transition Info" style="text;html=1;align=center;verticalAlign=middle;whiteSpace=wrap;rounded=1;fillColor=none;strokeColor=#6c8ebf;" vertex="1" parent="kwPPlmETn_7wv_7W3cQE-0">
          <mxGeometry x="290.5" y="178.63999999999987" width="130" height="30" as="geometry" />
        </mxCell>
      </root>
    </mxGraphModel>
  </diagram>
  <diagram name="UX Flow" id="lkq0SSNdgGatie-Hsox6">
    <mxGraphModel dx="1347" dy="305" grid="0" gridSize="10" guides="1" tooltips="1" connect="1" arrows="1" fold="1" page="0" pageScale="1" pageWidth="850" pageHeight="1100" math="0" shadow="0">
      <root>
        <mxCell id="J835j-PUz9UxYiXW6Pef-0" />
        <mxCell id="J835j-PUz9UxYiXW6Pef-1" parent="J835j-PUz9UxYiXW6Pef-0" />
        <mxCell id="zQJPfkqCnxne1EPYihhd-0" value="" style="rounded=0;whiteSpace=wrap;html=1;hachureGap=4;fontFamily=Architects Daughter;fontSource=https%3A%2F%2Ffonts.googleapis.com%2Fcss%3Ffamily%3DArchitects%2BDaughter;fontSize=20;labelBackgroundColor=#0A0A0A;noLabel=1;fillColor=#FFFFFF;" vertex="1" parent="J835j-PUz9UxYiXW6Pef-1">
          <mxGeometry x="-527" y="94" width="1660" height="635" as="geometry" />
        </mxCell>
        <mxCell id="J835j-PUz9UxYiXW6Pef-3" value="" style="swimlane;startSize=0;rounded=1;" vertex="1" parent="J835j-PUz9UxYiXW6Pef-1">
          <mxGeometry x="-334" y="423" width="429" height="246" as="geometry" />
        </mxCell>
        <mxCell id="J835j-PUz9UxYiXW6Pef-4" value="" style="endArrow=none;html=1;rounded=1;strokeWidth=3;dashed=1;" edge="1" parent="J835j-PUz9UxYiXW6Pef-3">
          <mxGeometry width="50" height="50" relative="1" as="geometry">
            <mxPoint x="20.5" y="119" as="sourcePoint" />
            <mxPoint x="130.5" y="119" as="targetPoint" />
          </mxGeometry>
        </mxCell>
        <mxCell id="J835j-PUz9UxYiXW6Pef-5" value="UX Process" style="text;html=1;strokeColor=none;fillColor=none;align=center;verticalAlign=middle;whiteSpace=wrap;rounded=1;" vertex="1" parent="J835j-PUz9UxYiXW6Pef-3">
          <mxGeometry x="20.5" y="89" width="110" height="30" as="geometry" />
        </mxCell>
        <mxCell id="J835j-PUz9UxYiXW6Pef-6" value="Status Name" style="whiteSpace=wrap;html=1;rounded=1;arcSize=14;strokeWidth=2;" vertex="1" parent="J835j-PUz9UxYiXW6Pef-3">
          <mxGeometry x="160.5" y="74" width="120" height="60" as="geometry" />
        </mxCell>
        <mxCell id="J835j-PUz9UxYiXW6Pef-7" value="" style="endArrow=classic;html=1;rounded=1;strokeWidth=3;fillColor=#ffe6cc;strokeColor=#d79b00;endFill=1;" edge="1" parent="J835j-PUz9UxYiXW6Pef-3">
          <mxGeometry width="50" height="50" relative="1" as="geometry">
            <mxPoint x="20.5" y="208.63999999999987" as="sourcePoint" />
            <mxPoint x="130.5" y="208.63999999999987" as="targetPoint" />
          </mxGeometry>
        </mxCell>
        <mxCell id="J835j-PUz9UxYiXW6Pef-8" value="Override Process" style="text;html=1;strokeColor=none;fillColor=none;align=center;verticalAlign=middle;whiteSpace=wrap;rounded=1;" vertex="1" parent="J835j-PUz9UxYiXW6Pef-3">
          <mxGeometry x="20.5" y="178.63999999999987" width="110" height="30" as="geometry" />
        </mxCell>
        <mxCell id="J835j-PUz9UxYiXW6Pef-9" value="Decision" style="rhombus;whiteSpace=wrap;html=1;rounded=1;arcSize=14;strokeWidth=2;" vertex="1" parent="J835j-PUz9UxYiXW6Pef-3">
          <mxGeometry x="180.5" y="154" width="80" height="80" as="geometry" />
        </mxCell>
        <mxCell id="J835j-PUz9UxYiXW6Pef-10" value="&lt;h1&gt;Legend&lt;/h1&gt;" style="text;html=1;strokeColor=none;fillColor=none;spacing=5;spacingTop=-20;whiteSpace=wrap;overflow=hidden;rounded=1;fontStyle=4;align=center;" vertex="1" parent="J835j-PUz9UxYiXW6Pef-3">
          <mxGeometry x="150.5" y="8" width="140" height="40" as="geometry" />
        </mxCell>
        <mxCell id="J835j-PUz9UxYiXW6Pef-11" value="Likely Actor on flow" style="shape=umlActor;verticalLabelPosition=bottom;verticalAlign=top;html=1;outlineConnect=0;rounded=1;" vertex="1" parent="J835j-PUz9UxYiXW6Pef-3">
          <mxGeometry x="340.5" y="64" width="30" height="60" as="geometry" />
        </mxCell>
        <mxCell id="J835j-PUz9UxYiXW6Pef-12" value="Transition Info" style="text;html=1;align=center;verticalAlign=middle;whiteSpace=wrap;rounded=1;fillColor=none;strokeColor=#6c8ebf;" vertex="1" parent="J835j-PUz9UxYiXW6Pef-3">
          <mxGeometry x="290.5" y="178.63999999999987" width="130" height="30" as="geometry" />
        </mxCell>
        <mxCell id="J835j-PUz9UxYiXW6Pef-13" value="" style="edgeStyle=orthogonalEdgeStyle;rounded=1;orthogonalLoop=1;jettySize=auto;html=1;" edge="1" parent="J835j-PUz9UxYiXW6Pef-1" source="J835j-PUz9UxYiXW6Pef-14" target="J835j-PUz9UxYiXW6Pef-20">
          <mxGeometry relative="1" as="geometry" />
        </mxCell>
        <mxCell id="J835j-PUz9UxYiXW6Pef-14" value="Automatically&lt;br&gt;added to the Dashboard&lt;br&gt;Board" style="rounded=1;whiteSpace=wrap;html=1;absoluteArcSize=1;arcSize=14;strokeWidth=2;fillColor=#f8cecc;strokeColor=#b85450;" vertex="1" parent="J835j-PUz9UxYiXW6Pef-1">
          <mxGeometry x="-260" y="270" width="100" height="100" as="geometry" />
        </mxCell>
        <mxCell id="J835j-PUz9UxYiXW6Pef-15" style="edgeStyle=orthogonalEdgeStyle;rounded=1;orthogonalLoop=1;jettySize=auto;html=1;fillColor=#ffe6cc;strokeColor=#d79b00;exitX=1;exitY=0.5;exitDx=0;exitDy=0;dashed=1;entryX=0;entryY=0.5;entryDx=0;entryDy=0;" edge="1" parent="J835j-PUz9UxYiXW6Pef-1" source="J835j-PUz9UxYiXW6Pef-74" target="J835j-PUz9UxYiXW6Pef-28">
          <mxGeometry relative="1" as="geometry">
            <mxPoint x="289" y="320" as="targetPoint" />
            <Array as="points" />
            <mxPoint x="140" y="155" as="sourcePoint" />
          </mxGeometry>
        </mxCell>
        <mxCell id="J835j-PUz9UxYiXW6Pef-16" value="Yes" style="edgeLabel;html=1;align=center;verticalAlign=middle;resizable=0;points=[];rounded=1;" vertex="1" connectable="0" parent="J835j-PUz9UxYiXW6Pef-15">
          <mxGeometry x="-0.8606" y="1" relative="1" as="geometry">
            <mxPoint x="8" y="1" as="offset" />
          </mxGeometry>
        </mxCell>
        <mxCell id="J835j-PUz9UxYiXW6Pef-19" style="edgeStyle=orthogonalEdgeStyle;rounded=1;orthogonalLoop=1;jettySize=auto;html=1;entryX=0;entryY=0.5;entryDx=0;entryDy=0;" edge="1" parent="J835j-PUz9UxYiXW6Pef-1" source="J835j-PUz9UxYiXW6Pef-20" target="J835j-PUz9UxYiXW6Pef-74">
          <mxGeometry relative="1" as="geometry" />
        </mxCell>
        <mxCell id="J835j-PUz9UxYiXW6Pef-20" value="Untriaged" style="whiteSpace=wrap;html=1;rounded=1;arcSize=14;strokeWidth=2;" vertex="1" parent="J835j-PUz9UxYiXW6Pef-1">
          <mxGeometry x="-110" y="290" width="120" height="60" as="geometry" />
        </mxCell>
        <mxCell id="J835j-PUz9UxYiXW6Pef-23" value="" style="edgeStyle=orthogonalEdgeStyle;rounded=1;orthogonalLoop=1;jettySize=auto;html=1;" edge="1" parent="J835j-PUz9UxYiXW6Pef-1" source="J835j-PUz9UxYiXW6Pef-26">
          <mxGeometry relative="1" as="geometry">
            <mxPoint x="900" y="435" as="targetPoint" />
          </mxGeometry>
        </mxCell>
        <mxCell id="J835j-PUz9UxYiXW6Pef-27" style="edgeStyle=orthogonalEdgeStyle;rounded=1;orthogonalLoop=1;jettySize=auto;html=1;entryX=0;entryY=0.5;entryDx=0;entryDy=0;dashed=1;" edge="1" parent="J835j-PUz9UxYiXW6Pef-1" source="J835j-PUz9UxYiXW6Pef-28" target="J835j-PUz9UxYiXW6Pef-53">
          <mxGeometry relative="1" as="geometry" />
        </mxCell>
        <mxCell id="J835j-PUz9UxYiXW6Pef-28" value="UX Backlog" style="whiteSpace=wrap;html=1;rounded=1;arcSize=14;strokeWidth=2;dashed=1;" vertex="1" parent="J835j-PUz9UxYiXW6Pef-1">
          <mxGeometry x="292" y="290" width="120" height="60" as="geometry" />
        </mxCell>
        <mxCell id="J835j-PUz9UxYiXW6Pef-29" value="" style="edgeStyle=orthogonalEdgeStyle;rounded=1;orthogonalLoop=1;jettySize=auto;html=1;" edge="1" parent="J835j-PUz9UxYiXW6Pef-1" source="J835j-PUz9UxYiXW6Pef-30">
          <mxGeometry relative="1" as="geometry">
            <mxPoint x="960" y="577" as="targetPoint" />
          </mxGeometry>
        </mxCell>
        <mxCell id="J835j-PUz9UxYiXW6Pef-31" style="edgeStyle=orthogonalEdgeStyle;rounded=1;orthogonalLoop=1;jettySize=auto;html=1;entryX=0;entryY=0.5;entryDx=0;entryDy=0;dashed=1;" edge="1" parent="J835j-PUz9UxYiXW6Pef-1" source="J835j-PUz9UxYiXW6Pef-32" target="J835j-PUz9UxYiXW6Pef-36">
          <mxGeometry relative="1" as="geometry" />
        </mxCell>
        <mxCell id="J835j-PUz9UxYiXW6Pef-32" value="UX In Progress" style="whiteSpace=wrap;html=1;rounded=1;arcSize=14;strokeWidth=2;dashed=1;" vertex="1" parent="J835j-PUz9UxYiXW6Pef-1">
          <mxGeometry x="612" y="290" width="120" height="60" as="geometry" />
        </mxCell>
        <mxCell id="J835j-PUz9UxYiXW6Pef-33" value="Yes" style="edgeStyle=orthogonalEdgeStyle;rounded=1;orthogonalLoop=1;jettySize=auto;html=1;dashed=1;" edge="1" parent="J835j-PUz9UxYiXW6Pef-1" source="J835j-PUz9UxYiXW6Pef-36" target="J835j-PUz9UxYiXW6Pef-105">
          <mxGeometry x="-0.5143" relative="1" as="geometry">
            <mxPoint as="offset" />
            <mxPoint x="1130" y="740" as="targetPoint" />
          </mxGeometry>
        </mxCell>
        <mxCell id="J835j-PUz9UxYiXW6Pef-36" value="Internal&lt;br&gt;UX?" style="rhombus;whiteSpace=wrap;html=1;rounded=1;arcSize=14;strokeWidth=2;dashed=1;" vertex="1" parent="J835j-PUz9UxYiXW6Pef-1">
          <mxGeometry x="802" y="280" width="80" height="80" as="geometry" />
        </mxCell>
        <mxCell id="J835j-PUz9UxYiXW6Pef-52" style="edgeStyle=orthogonalEdgeStyle;rounded=1;orthogonalLoop=1;jettySize=auto;html=1;entryX=0;entryY=0.5;entryDx=0;entryDy=0;dashed=1;" edge="1" parent="J835j-PUz9UxYiXW6Pef-1" source="J835j-PUz9UxYiXW6Pef-53" target="J835j-PUz9UxYiXW6Pef-32">
          <mxGeometry relative="1" as="geometry" />
        </mxCell>
        <mxCell id="J835j-PUz9UxYiXW6Pef-53" value="UX Next" style="whiteSpace=wrap;html=1;rounded=1;arcSize=14;strokeWidth=2;dashed=1;" vertex="1" parent="J835j-PUz9UxYiXW6Pef-1">
          <mxGeometry x="452" y="290" width="120" height="60" as="geometry" />
        </mxCell>
        <mxCell id="J835j-PUz9UxYiXW6Pef-54" style="edgeStyle=orthogonalEdgeStyle;rounded=1;orthogonalLoop=1;jettySize=auto;html=1;entryX=0;entryY=0.5;entryDx=0;entryDy=0;" edge="1" parent="J835j-PUz9UxYiXW6Pef-1" source="J835j-PUz9UxYiXW6Pef-55" target="J835j-PUz9UxYiXW6Pef-14">
          <mxGeometry relative="1" as="geometry" />
        </mxCell>
        <mxCell id="J835j-PUz9UxYiXW6Pef-55" value="(Internal)&lt;br&gt;UX" style="rounded=1;whiteSpace=wrap;html=1;absoluteArcSize=1;arcSize=14;strokeWidth=2;" vertex="1" parent="J835j-PUz9UxYiXW6Pef-1">
          <mxGeometry x="-467" y="270" width="100" height="100" as="geometry" />
        </mxCell>
        <mxCell id="J835j-PUz9UxYiXW6Pef-74" value="Manual&lt;br&gt;Intervention?" style="rhombus;whiteSpace=wrap;html=1;rounded=1;" vertex="1" parent="J835j-PUz9UxYiXW6Pef-1">
          <mxGeometry x="90" y="270" width="100" height="100" as="geometry" />
        </mxCell>
        <mxCell id="J835j-PUz9UxYiXW6Pef-75" value="UX" style="shape=umlActor;verticalLabelPosition=bottom;verticalAlign=top;html=1;outlineConnect=0;rounded=1;labelBackgroundColor=default;" vertex="1" parent="J835j-PUz9UxYiXW6Pef-1">
          <mxGeometry x="-328" y="255" width="30" height="60" as="geometry" />
        </mxCell>
        <mxCell id="J835j-PUz9UxYiXW6Pef-80" value="UX Lead Planning" style="text;html=1;align=center;verticalAlign=middle;whiteSpace=wrap;rounded=1;fillColor=none;strokeColor=#6c8ebf;" vertex="1" parent="J835j-PUz9UxYiXW6Pef-1">
          <mxGeometry x="368" y="250" width="110" height="30" as="geometry" />
        </mxCell>
        <mxCell id="J835j-PUz9UxYiXW6Pef-81" value="UX Picks Up Work" style="text;html=1;align=center;verticalAlign=middle;whiteSpace=wrap;rounded=1;fillColor=none;strokeColor=#6c8ebf;" vertex="1" parent="J835j-PUz9UxYiXW6Pef-1">
          <mxGeometry x="538" y="250" width="110" height="30" as="geometry" />
        </mxCell>
        <mxCell id="J835j-PUz9UxYiXW6Pef-82" value="UX Work Complete" style="text;html=1;align=center;verticalAlign=middle;whiteSpace=wrap;rounded=1;fillColor=none;strokeColor=#6c8ebf;" vertex="1" parent="J835j-PUz9UxYiXW6Pef-1">
          <mxGeometry x="699" y="250" width="120" height="30" as="geometry" />
        </mxCell>
        <mxCell id="J835j-PUz9UxYiXW6Pef-84" value="Internal UX Work Complete" style="text;html=1;align=center;verticalAlign=middle;whiteSpace=wrap;rounded=1;fillColor=none;strokeColor=#6c8ebf;" vertex="1" parent="J835j-PUz9UxYiXW6Pef-1">
          <mxGeometry x="882" y="245" width="90" height="40" as="geometry" />
        </mxCell>
        <mxCell id="J835j-PUz9UxYiXW6Pef-94" value="Internal UX Issue &amp;amp; Needs No Development" style="text;html=1;align=center;verticalAlign=middle;whiteSpace=wrap;rounded=1;fillColor=none;strokeColor=#6c8ebf;" vertex="1" parent="J835j-PUz9UxYiXW6Pef-1">
          <mxGeometry x="153" y="364" width="120" height="50" as="geometry" />
        </mxCell>
        <mxCell id="J835j-PUz9UxYiXW6Pef-97" value="UX" style="shape=umlActor;verticalLabelPosition=bottom;verticalAlign=top;html=1;outlineConnect=0;rounded=1;" vertex="1" parent="J835j-PUz9UxYiXW6Pef-1">
          <mxGeometry x="578" y="158" width="30" height="60" as="geometry" />
        </mxCell>
        <mxCell id="J835j-PUz9UxYiXW6Pef-105" value="Done&lt;br&gt;(Issue is closed)" style="whiteSpace=wrap;html=1;rounded=1;arcSize=14;strokeWidth=2;shadow=0;" vertex="1" parent="J835j-PUz9UxYiXW6Pef-1">
          <mxGeometry x="952" y="290" width="120" height="60" as="geometry" />
        </mxCell>
      </root>
    </mxGraphModel>
  </diagram>
  <diagram name="Full Flow" id="tqF4zhrmbjVxXB3EGE6E">
    <mxGraphModel dx="3318" dy="1804" grid="0" gridSize="10" guides="1" tooltips="1" connect="1" arrows="1" fold="1" page="0" pageScale="1" pageWidth="850" pageHeight="1100" math="0" shadow="0">
      <root>
        <mxCell id="BhFyUZFd25FzzBbPVuEt-0" />
        <mxCell id="BhFyUZFd25FzzBbPVuEt-1" parent="BhFyUZFd25FzzBbPVuEt-0" />
        <mxCell id="IwDlcjS9URUibLJFDz8V-5" value="" style="rounded=0;whiteSpace=wrap;html=1;hachureGap=4;fontFamily=Architects Daughter;fontSource=https%3A%2F%2Ffonts.googleapis.com%2Fcss%3Ffamily%3DArchitects%2BDaughter;fontSize=20;labelBackgroundColor=#0A0A0A;noLabel=1;fillColor=#FFFFFF;" vertex="1" parent="BhFyUZFd25FzzBbPVuEt-1">
          <mxGeometry x="-734" y="-105" width="1977" height="1101" as="geometry" />
        </mxCell>
        <mxCell id="BhFyUZFd25FzzBbPVuEt-2" value="" style="swimlane;startSize=0;rounded=1;" vertex="1" parent="BhFyUZFd25FzzBbPVuEt-1">
          <mxGeometry x="-344" y="568" width="429" height="246" as="geometry" />
        </mxCell>
        <mxCell id="BhFyUZFd25FzzBbPVuEt-3" value="" style="endArrow=none;html=1;rounded=1;strokeWidth=3;dashed=1;" edge="1" parent="BhFyUZFd25FzzBbPVuEt-2">
          <mxGeometry width="50" height="50" relative="1" as="geometry">
            <mxPoint x="20.5" y="119" as="sourcePoint" />
            <mxPoint x="130.5" y="119" as="targetPoint" />
          </mxGeometry>
        </mxCell>
        <mxCell id="BhFyUZFd25FzzBbPVuEt-4" value="UX Process" style="text;html=1;strokeColor=none;fillColor=none;align=center;verticalAlign=middle;whiteSpace=wrap;rounded=1;" vertex="1" parent="BhFyUZFd25FzzBbPVuEt-2">
          <mxGeometry x="20.5" y="89" width="110" height="30" as="geometry" />
        </mxCell>
        <mxCell id="BhFyUZFd25FzzBbPVuEt-5" value="Status Name" style="whiteSpace=wrap;html=1;rounded=1;arcSize=14;strokeWidth=2;" vertex="1" parent="BhFyUZFd25FzzBbPVuEt-2">
          <mxGeometry x="160.5" y="74" width="120" height="60" as="geometry" />
        </mxCell>
        <mxCell id="BhFyUZFd25FzzBbPVuEt-6" value="" style="endArrow=classic;html=1;rounded=1;strokeWidth=3;fillColor=#ffe6cc;strokeColor=#d79b00;endFill=1;" edge="1" parent="BhFyUZFd25FzzBbPVuEt-2">
          <mxGeometry width="50" height="50" relative="1" as="geometry">
            <mxPoint x="20.5" y="208.63999999999987" as="sourcePoint" />
            <mxPoint x="130.5" y="208.63999999999987" as="targetPoint" />
          </mxGeometry>
        </mxCell>
        <mxCell id="BhFyUZFd25FzzBbPVuEt-7" value="Override Process" style="text;html=1;strokeColor=none;fillColor=none;align=center;verticalAlign=middle;whiteSpace=wrap;rounded=1;" vertex="1" parent="BhFyUZFd25FzzBbPVuEt-2">
          <mxGeometry x="20.5" y="178.63999999999987" width="110" height="30" as="geometry" />
        </mxCell>
        <mxCell id="BhFyUZFd25FzzBbPVuEt-8" value="Decision" style="rhombus;whiteSpace=wrap;html=1;rounded=1;arcSize=14;strokeWidth=2;" vertex="1" parent="BhFyUZFd25FzzBbPVuEt-2">
          <mxGeometry x="180.5" y="154" width="80" height="80" as="geometry" />
        </mxCell>
        <mxCell id="BhFyUZFd25FzzBbPVuEt-9" value="&lt;h1&gt;Legend&lt;/h1&gt;" style="text;html=1;strokeColor=none;fillColor=none;spacing=5;spacingTop=-20;whiteSpace=wrap;overflow=hidden;rounded=1;fontStyle=4;align=center;" vertex="1" parent="BhFyUZFd25FzzBbPVuEt-2">
          <mxGeometry x="150.5" y="8" width="140" height="40" as="geometry" />
        </mxCell>
        <mxCell id="BhFyUZFd25FzzBbPVuEt-10" value="Likely Actor on flow" style="shape=umlActor;verticalLabelPosition=bottom;verticalAlign=top;html=1;outlineConnect=0;rounded=1;" vertex="1" parent="BhFyUZFd25FzzBbPVuEt-2">
          <mxGeometry x="340.5" y="64" width="30" height="60" as="geometry" />
        </mxCell>
        <mxCell id="BhFyUZFd25FzzBbPVuEt-11" value="Transition Info" style="text;html=1;align=center;verticalAlign=middle;whiteSpace=wrap;rounded=1;fillColor=none;strokeColor=#6c8ebf;" vertex="1" parent="BhFyUZFd25FzzBbPVuEt-2">
          <mxGeometry x="290.5" y="178.63999999999987" width="130" height="30" as="geometry" />
        </mxCell>
        <mxCell id="BhFyUZFd25FzzBbPVuEt-12" value="" style="edgeStyle=orthogonalEdgeStyle;rounded=1;orthogonalLoop=1;jettySize=auto;html=1;" edge="1" parent="BhFyUZFd25FzzBbPVuEt-1" source="BhFyUZFd25FzzBbPVuEt-13" target="BhFyUZFd25FzzBbPVuEt-19">
          <mxGeometry relative="1" as="geometry" />
        </mxCell>
        <mxCell id="BhFyUZFd25FzzBbPVuEt-13" value="Automatically&lt;br&gt;added to the Dashboard&lt;br&gt;Board" style="rounded=1;whiteSpace=wrap;html=1;absoluteArcSize=1;arcSize=14;strokeWidth=2;fillColor=#f8cecc;strokeColor=#b85450;" vertex="1" parent="BhFyUZFd25FzzBbPVuEt-1">
          <mxGeometry x="-260" y="270" width="100" height="100" as="geometry" />
        </mxCell>
        <mxCell id="BhFyUZFd25FzzBbPVuEt-14" style="edgeStyle=orthogonalEdgeStyle;rounded=1;orthogonalLoop=1;jettySize=auto;html=1;fillColor=#ffe6cc;strokeColor=#d79b00;entryX=0;entryY=0.5;entryDx=0;entryDy=0;exitX=0.5;exitY=0;exitDx=0;exitDy=0;dashed=1;" edge="1" parent="BhFyUZFd25FzzBbPVuEt-1" source="BhFyUZFd25FzzBbPVuEt-73" target="BhFyUZFd25FzzBbPVuEt-27">
          <mxGeometry relative="1" as="geometry">
            <mxPoint x="260" y="45" as="targetPoint" />
            <Array as="points">
              <mxPoint x="140" y="128" />
            </Array>
            <mxPoint x="140" y="155" as="sourcePoint" />
          </mxGeometry>
        </mxCell>
        <mxCell id="BhFyUZFd25FzzBbPVuEt-15" value="Yes" style="edgeLabel;html=1;align=center;verticalAlign=middle;resizable=0;points=[];rounded=1;" vertex="1" connectable="0" parent="BhFyUZFd25FzzBbPVuEt-14">
          <mxGeometry x="-0.8606" y="1" relative="1" as="geometry">
            <mxPoint y="1" as="offset" />
          </mxGeometry>
        </mxCell>
        <mxCell id="BhFyUZFd25FzzBbPVuEt-16" style="edgeStyle=orthogonalEdgeStyle;rounded=1;orthogonalLoop=1;jettySize=auto;html=1;entryX=0;entryY=0.5;entryDx=0;entryDy=0;fillColor=#ffe6cc;strokeColor=#d79b00;exitX=0.5;exitY=1;exitDx=0;exitDy=0;" edge="1" parent="BhFyUZFd25FzzBbPVuEt-1" source="BhFyUZFd25FzzBbPVuEt-73" target="BhFyUZFd25FzzBbPVuEt-65">
          <mxGeometry relative="1" as="geometry">
            <Array as="points">
              <mxPoint x="140" y="780" />
            </Array>
          </mxGeometry>
        </mxCell>
        <mxCell id="BhFyUZFd25FzzBbPVuEt-17" value="Yes" style="edgeLabel;html=1;align=center;verticalAlign=middle;resizable=0;points=[];rounded=1;" vertex="1" connectable="0" parent="BhFyUZFd25FzzBbPVuEt-16">
          <mxGeometry x="-0.8523" y="-3" relative="1" as="geometry">
            <mxPoint x="3" y="-12" as="offset" />
          </mxGeometry>
        </mxCell>
        <mxCell id="BhFyUZFd25FzzBbPVuEt-18" style="edgeStyle=orthogonalEdgeStyle;rounded=1;orthogonalLoop=1;jettySize=auto;html=1;entryX=0;entryY=0.5;entryDx=0;entryDy=0;" edge="1" parent="BhFyUZFd25FzzBbPVuEt-1" source="BhFyUZFd25FzzBbPVuEt-19" target="BhFyUZFd25FzzBbPVuEt-73">
          <mxGeometry relative="1" as="geometry" />
        </mxCell>
        <mxCell id="BhFyUZFd25FzzBbPVuEt-19" value="Untriaged" style="whiteSpace=wrap;html=1;rounded=1;arcSize=14;strokeWidth=2;" vertex="1" parent="BhFyUZFd25FzzBbPVuEt-1">
          <mxGeometry x="-110" y="290" width="120" height="60" as="geometry" />
        </mxCell>
        <mxCell id="BhFyUZFd25FzzBbPVuEt-20" value="" style="edgeStyle=orthogonalEdgeStyle;rounded=1;orthogonalLoop=1;jettySize=auto;html=1;" edge="1" parent="BhFyUZFd25FzzBbPVuEt-1" source="BhFyUZFd25FzzBbPVuEt-25" target="BhFyUZFd25FzzBbPVuEt-27">
          <mxGeometry relative="1" as="geometry" />
        </mxCell>
        <mxCell id="BhFyUZFd25FzzBbPVuEt-21" value="Yes" style="edgeLabel;html=1;align=center;verticalAlign=middle;resizable=0;points=[];rounded=1;" vertex="1" connectable="0" parent="BhFyUZFd25FzzBbPVuEt-20">
          <mxGeometry x="-0.1758" y="1" relative="1" as="geometry">
            <mxPoint x="1" y="113" as="offset" />
          </mxGeometry>
        </mxCell>
        <mxCell id="BhFyUZFd25FzzBbPVuEt-22" value="" style="edgeStyle=orthogonalEdgeStyle;rounded=1;orthogonalLoop=1;jettySize=auto;html=1;" edge="1" parent="BhFyUZFd25FzzBbPVuEt-1" source="BhFyUZFd25FzzBbPVuEt-25" target="BhFyUZFd25FzzBbPVuEt-29">
          <mxGeometry relative="1" as="geometry" />
        </mxCell>
        <mxCell id="BhFyUZFd25FzzBbPVuEt-23" value="No" style="edgeLabel;html=1;align=center;verticalAlign=middle;resizable=0;points=[];rounded=1;" vertex="1" connectable="0" parent="BhFyUZFd25FzzBbPVuEt-22">
          <mxGeometry x="-0.2464" y="3" relative="1" as="geometry">
            <mxPoint x="-174" y="3" as="offset" />
          </mxGeometry>
        </mxCell>
        <mxCell id="BhFyUZFd25FzzBbPVuEt-24" value="No" style="edgeLabel;html=1;align=center;verticalAlign=middle;resizable=0;points=[];rounded=1;" vertex="1" connectable="0" parent="BhFyUZFd25FzzBbPVuEt-22">
          <mxGeometry x="-0.7947" y="3" relative="1" as="geometry">
            <mxPoint x="-9" y="2" as="offset" />
          </mxGeometry>
        </mxCell>
        <mxCell id="BhFyUZFd25FzzBbPVuEt-25" value="Needs UX?" style="rhombus;whiteSpace=wrap;html=1;rounded=1;arcSize=14;strokeWidth=2;" vertex="1" parent="BhFyUZFd25FzzBbPVuEt-1">
          <mxGeometry x="430" y="395" width="80" height="80" as="geometry" />
        </mxCell>
        <mxCell id="BhFyUZFd25FzzBbPVuEt-26" style="edgeStyle=orthogonalEdgeStyle;rounded=1;orthogonalLoop=1;jettySize=auto;html=1;entryX=0;entryY=0.5;entryDx=0;entryDy=0;dashed=1;" edge="1" parent="BhFyUZFd25FzzBbPVuEt-1" source="BhFyUZFd25FzzBbPVuEt-27" target="BhFyUZFd25FzzBbPVuEt-52">
          <mxGeometry relative="1" as="geometry" />
        </mxCell>
        <mxCell id="BhFyUZFd25FzzBbPVuEt-27" value="UX Backlog" style="whiteSpace=wrap;html=1;rounded=1;arcSize=14;strokeWidth=2;dashed=1;" vertex="1" parent="BhFyUZFd25FzzBbPVuEt-1">
          <mxGeometry x="410" y="98" width="120" height="60" as="geometry" />
        </mxCell>
        <mxCell id="BhFyUZFd25FzzBbPVuEt-28" value="" style="edgeStyle=orthogonalEdgeStyle;rounded=1;orthogonalLoop=1;jettySize=auto;html=1;" edge="1" parent="BhFyUZFd25FzzBbPVuEt-1" source="BhFyUZFd25FzzBbPVuEt-29" target="BhFyUZFd25FzzBbPVuEt-37">
          <mxGeometry relative="1" as="geometry" />
        </mxCell>
        <mxCell id="BhFyUZFd25FzzBbPVuEt-29" value="Dev To Do" style="whiteSpace=wrap;html=1;rounded=1;arcSize=14;strokeWidth=2;shadow=0;" vertex="1" parent="BhFyUZFd25FzzBbPVuEt-1">
          <mxGeometry x="900" y="405" width="120" height="60" as="geometry" />
        </mxCell>
        <mxCell id="BhFyUZFd25FzzBbPVuEt-30" style="edgeStyle=orthogonalEdgeStyle;rounded=1;orthogonalLoop=1;jettySize=auto;html=1;entryX=0;entryY=0.5;entryDx=0;entryDy=0;dashed=1;" edge="1" parent="BhFyUZFd25FzzBbPVuEt-1" source="BhFyUZFd25FzzBbPVuEt-31" target="BhFyUZFd25FzzBbPVuEt-35">
          <mxGeometry relative="1" as="geometry" />
        </mxCell>
        <mxCell id="BhFyUZFd25FzzBbPVuEt-31" value="UX In Progress" style="whiteSpace=wrap;html=1;rounded=1;arcSize=14;strokeWidth=2;dashed=1;" vertex="1" parent="BhFyUZFd25FzzBbPVuEt-1">
          <mxGeometry x="730" y="98" width="120" height="60" as="geometry" />
        </mxCell>
        <mxCell id="BhFyUZFd25FzzBbPVuEt-32" value="Yes" style="edgeStyle=orthogonalEdgeStyle;rounded=1;orthogonalLoop=1;jettySize=auto;html=1;dashed=1;" edge="1" parent="BhFyUZFd25FzzBbPVuEt-1" source="BhFyUZFd25FzzBbPVuEt-35" target="BhFyUZFd25FzzBbPVuEt-104">
          <mxGeometry x="-0.9155" relative="1" as="geometry">
            <mxPoint as="offset" />
            <mxPoint x="1130" y="740" as="targetPoint" />
          </mxGeometry>
        </mxCell>
        <mxCell id="BhFyUZFd25FzzBbPVuEt-33" value="No" style="edgeStyle=orthogonalEdgeStyle;rounded=1;orthogonalLoop=1;jettySize=auto;html=1;entryX=0.5;entryY=0;entryDx=0;entryDy=0;dashed=1;" edge="1" parent="BhFyUZFd25FzzBbPVuEt-1" source="BhFyUZFd25FzzBbPVuEt-35" target="BhFyUZFd25FzzBbPVuEt-101">
          <mxGeometry x="-0.6889" relative="1" as="geometry">
            <mxPoint x="960" y="155" as="targetPoint" />
            <mxPoint as="offset" />
          </mxGeometry>
        </mxCell>
        <mxCell id="BhFyUZFd25FzzBbPVuEt-34" value="No" style="edgeLabel;html=1;align=center;verticalAlign=middle;resizable=0;points=[];rounded=1;" vertex="1" connectable="0" parent="BhFyUZFd25FzzBbPVuEt-33">
          <mxGeometry x="0.0198" y="-1" relative="1" as="geometry">
            <mxPoint x="1" y="-77" as="offset" />
          </mxGeometry>
        </mxCell>
        <mxCell id="BhFyUZFd25FzzBbPVuEt-35" value="Internal&lt;br&gt;UX?" style="rhombus;whiteSpace=wrap;html=1;rounded=1;arcSize=14;strokeWidth=2;dashed=1;" vertex="1" parent="BhFyUZFd25FzzBbPVuEt-1">
          <mxGeometry x="920" y="88" width="80" height="80" as="geometry" />
        </mxCell>
        <mxCell id="BhFyUZFd25FzzBbPVuEt-36" style="edgeStyle=orthogonalEdgeStyle;rounded=1;orthogonalLoop=1;jettySize=auto;html=1;entryX=0;entryY=0.5;entryDx=0;entryDy=0;exitX=0.5;exitY=1;exitDx=0;exitDy=0;" edge="1" parent="BhFyUZFd25FzzBbPVuEt-1" source="BhFyUZFd25FzzBbPVuEt-37" target="BhFyUZFd25FzzBbPVuEt-104">
          <mxGeometry relative="1" as="geometry">
            <mxPoint x="1090" y="780" as="targetPoint" />
          </mxGeometry>
        </mxCell>
        <mxCell id="BhFyUZFd25FzzBbPVuEt-37" value="Dev In Progress" style="whiteSpace=wrap;html=1;rounded=1;arcSize=14;strokeWidth=2;shadow=0;" vertex="1" parent="BhFyUZFd25FzzBbPVuEt-1">
          <mxGeometry x="900" y="577" width="120" height="60" as="geometry" />
        </mxCell>
        <mxCell id="BhFyUZFd25FzzBbPVuEt-38" value="" style="edgeStyle=orthogonalEdgeStyle;rounded=1;orthogonalLoop=1;jettySize=auto;html=1;entryX=0.5;entryY=1;entryDx=0;entryDy=0;" edge="1" parent="BhFyUZFd25FzzBbPVuEt-1" source="BhFyUZFd25FzzBbPVuEt-42" target="BhFyUZFd25FzzBbPVuEt-25">
          <mxGeometry relative="1" as="geometry">
            <mxPoint x="370" y="460" as="targetPoint" />
          </mxGeometry>
        </mxCell>
        <mxCell id="BhFyUZFd25FzzBbPVuEt-39" value="Yes" style="edgeLabel;html=1;align=center;verticalAlign=middle;resizable=0;points=[];rounded=1;" vertex="1" connectable="0" parent="BhFyUZFd25FzzBbPVuEt-38">
          <mxGeometry x="-0.5698" y="-1" relative="1" as="geometry">
            <mxPoint x="-1" y="8" as="offset" />
          </mxGeometry>
        </mxCell>
        <mxCell id="BhFyUZFd25FzzBbPVuEt-40" style="edgeStyle=orthogonalEdgeStyle;rounded=1;orthogonalLoop=1;jettySize=auto;html=1;entryX=0;entryY=0.5;entryDx=0;entryDy=0;" edge="1" parent="BhFyUZFd25FzzBbPVuEt-1" source="BhFyUZFd25FzzBbPVuEt-42" target="BhFyUZFd25FzzBbPVuEt-104">
          <mxGeometry relative="1" as="geometry">
            <mxPoint x="670" y="620" as="targetPoint" />
          </mxGeometry>
        </mxCell>
        <mxCell id="BhFyUZFd25FzzBbPVuEt-41" value="No" style="edgeLabel;html=1;align=center;verticalAlign=middle;resizable=0;points=[];rounded=1;" vertex="1" connectable="0" parent="BhFyUZFd25FzzBbPVuEt-40">
          <mxGeometry x="-0.8871" relative="1" as="geometry">
            <mxPoint x="-20" as="offset" />
          </mxGeometry>
        </mxCell>
        <mxCell id="BhFyUZFd25FzzBbPVuEt-42" value="Valid&lt;br&gt;Issue?" style="rhombus;whiteSpace=wrap;html=1;rounded=1;arcSize=14;strokeWidth=2;" vertex="1" parent="BhFyUZFd25FzzBbPVuEt-1">
          <mxGeometry x="430" y="580" width="80" height="80" as="geometry" />
        </mxCell>
        <mxCell id="BhFyUZFd25FzzBbPVuEt-43" style="edgeStyle=orthogonalEdgeStyle;rounded=1;orthogonalLoop=1;jettySize=auto;html=1;entryX=0;entryY=0.5;entryDx=0;entryDy=0;" edge="1" parent="BhFyUZFd25FzzBbPVuEt-1" source="BhFyUZFd25FzzBbPVuEt-44" target="BhFyUZFd25FzzBbPVuEt-13">
          <mxGeometry relative="1" as="geometry" />
        </mxCell>
        <mxCell id="BhFyUZFd25FzzBbPVuEt-44" value="Bug" style="rounded=1;whiteSpace=wrap;html=1;absoluteArcSize=1;arcSize=14;strokeWidth=2;" vertex="1" parent="BhFyUZFd25FzzBbPVuEt-1">
          <mxGeometry x="-410" y="60" width="100" height="100" as="geometry" />
        </mxCell>
        <mxCell id="BhFyUZFd25FzzBbPVuEt-45" style="edgeStyle=orthogonalEdgeStyle;rounded=1;orthogonalLoop=1;jettySize=auto;html=1;entryX=0;entryY=0.5;entryDx=0;entryDy=0;" edge="1" parent="BhFyUZFd25FzzBbPVuEt-1" source="BhFyUZFd25FzzBbPVuEt-46" target="BhFyUZFd25FzzBbPVuEt-13">
          <mxGeometry relative="1" as="geometry" />
        </mxCell>
        <mxCell id="BhFyUZFd25FzzBbPVuEt-46" value="Feature&lt;br&gt;Request" style="rounded=1;whiteSpace=wrap;html=1;absoluteArcSize=1;arcSize=14;strokeWidth=2;" vertex="1" parent="BhFyUZFd25FzzBbPVuEt-1">
          <mxGeometry x="-410" y="170" width="100" height="100" as="geometry" />
        </mxCell>
        <mxCell id="BhFyUZFd25FzzBbPVuEt-47" style="edgeStyle=orthogonalEdgeStyle;rounded=1;orthogonalLoop=1;jettySize=auto;html=1;entryX=0;entryY=0.5;entryDx=0;entryDy=0;" edge="1" parent="BhFyUZFd25FzzBbPVuEt-1" source="BhFyUZFd25FzzBbPVuEt-48" target="BhFyUZFd25FzzBbPVuEt-13">
          <mxGeometry relative="1" as="geometry" />
        </mxCell>
        <mxCell id="BhFyUZFd25FzzBbPVuEt-48" value="(Internal)&lt;br&gt;Story" style="rounded=1;whiteSpace=wrap;html=1;absoluteArcSize=1;arcSize=14;strokeWidth=2;" vertex="1" parent="BhFyUZFd25FzzBbPVuEt-1">
          <mxGeometry x="-670" y="380" width="100" height="100" as="geometry" />
        </mxCell>
        <mxCell id="BhFyUZFd25FzzBbPVuEt-49" style="edgeStyle=orthogonalEdgeStyle;rounded=1;orthogonalLoop=1;jettySize=auto;html=1;entryX=0;entryY=0.5;entryDx=0;entryDy=0;" edge="1" parent="BhFyUZFd25FzzBbPVuEt-1" source="BhFyUZFd25FzzBbPVuEt-50" target="BhFyUZFd25FzzBbPVuEt-13">
          <mxGeometry relative="1" as="geometry" />
        </mxCell>
        <mxCell id="BhFyUZFd25FzzBbPVuEt-50" value="(Internal)&lt;br&gt;Test" style="rounded=1;whiteSpace=wrap;html=1;absoluteArcSize=1;arcSize=14;strokeWidth=2;" vertex="1" parent="BhFyUZFd25FzzBbPVuEt-1">
          <mxGeometry x="-670" y="490" width="100" height="100" as="geometry" />
        </mxCell>
        <mxCell id="BhFyUZFd25FzzBbPVuEt-51" style="edgeStyle=orthogonalEdgeStyle;rounded=1;orthogonalLoop=1;jettySize=auto;html=1;entryX=0;entryY=0.5;entryDx=0;entryDy=0;dashed=1;" edge="1" parent="BhFyUZFd25FzzBbPVuEt-1" source="BhFyUZFd25FzzBbPVuEt-52" target="BhFyUZFd25FzzBbPVuEt-31">
          <mxGeometry relative="1" as="geometry" />
        </mxCell>
        <mxCell id="BhFyUZFd25FzzBbPVuEt-52" value="UX Next" style="whiteSpace=wrap;html=1;rounded=1;arcSize=14;strokeWidth=2;dashed=1;" vertex="1" parent="BhFyUZFd25FzzBbPVuEt-1">
          <mxGeometry x="570" y="98" width="120" height="60" as="geometry" />
        </mxCell>
        <mxCell id="BhFyUZFd25FzzBbPVuEt-53" style="edgeStyle=orthogonalEdgeStyle;rounded=1;orthogonalLoop=1;jettySize=auto;html=1;entryX=0;entryY=0.5;entryDx=0;entryDy=0;" edge="1" parent="BhFyUZFd25FzzBbPVuEt-1" source="BhFyUZFd25FzzBbPVuEt-54" target="BhFyUZFd25FzzBbPVuEt-13">
          <mxGeometry relative="1" as="geometry" />
        </mxCell>
        <mxCell id="BhFyUZFd25FzzBbPVuEt-54" value="(Internal)&lt;br&gt;UX" style="rounded=1;whiteSpace=wrap;html=1;absoluteArcSize=1;arcSize=14;strokeWidth=2;" vertex="1" parent="BhFyUZFd25FzzBbPVuEt-1">
          <mxGeometry x="-670" y="601" width="100" height="100" as="geometry" />
        </mxCell>
        <mxCell id="BhFyUZFd25FzzBbPVuEt-55" style="edgeStyle=orthogonalEdgeStyle;rounded=1;orthogonalLoop=1;jettySize=auto;html=1;entryX=0;entryY=0.5;entryDx=0;entryDy=0;" edge="1" parent="BhFyUZFd25FzzBbPVuEt-1" source="BhFyUZFd25FzzBbPVuEt-56" target="BhFyUZFd25FzzBbPVuEt-13">
          <mxGeometry relative="1" as="geometry" />
        </mxCell>
        <mxCell id="BhFyUZFd25FzzBbPVuEt-56" value="(Internal)&lt;br&gt;Tracker" style="rounded=1;whiteSpace=wrap;html=1;absoluteArcSize=1;arcSize=14;strokeWidth=2;" vertex="1" parent="BhFyUZFd25FzzBbPVuEt-1">
          <mxGeometry x="-670" y="270" width="100" height="100" as="geometry" />
        </mxCell>
        <mxCell id="BhFyUZFd25FzzBbPVuEt-57" value="" style="edgeStyle=orthogonalEdgeStyle;rounded=1;orthogonalLoop=1;jettySize=auto;html=1;" edge="1" parent="BhFyUZFd25FzzBbPVuEt-1" source="BhFyUZFd25FzzBbPVuEt-58" target="BhFyUZFd25FzzBbPVuEt-63">
          <mxGeometry relative="1" as="geometry" />
        </mxCell>
        <mxCell id="BhFyUZFd25FzzBbPVuEt-58" value="Wait for&lt;br&gt;Triage Team*" style="shape=trapezoid;perimeter=trapezoidPerimeter;whiteSpace=wrap;html=1;fixedSize=1;rounded=1;arcSize=14;strokeWidth=2;" vertex="1" parent="BhFyUZFd25FzzBbPVuEt-1">
          <mxGeometry x="200" y="450" width="120" height="60" as="geometry" />
        </mxCell>
        <mxCell id="BhFyUZFd25FzzBbPVuEt-59" style="edgeStyle=orthogonalEdgeStyle;rounded=1;orthogonalLoop=1;jettySize=auto;html=1;entryX=0;entryY=0.5;entryDx=0;entryDy=0;" edge="1" parent="BhFyUZFd25FzzBbPVuEt-1" source="BhFyUZFd25FzzBbPVuEt-63" target="BhFyUZFd25FzzBbPVuEt-42">
          <mxGeometry relative="1" as="geometry" />
        </mxCell>
        <mxCell id="BhFyUZFd25FzzBbPVuEt-60" value="No" style="edgeLabel;html=1;align=center;verticalAlign=middle;resizable=0;points=[];rounded=1;" vertex="1" connectable="0" parent="BhFyUZFd25FzzBbPVuEt-59">
          <mxGeometry x="-0.1422" y="3" relative="1" as="geometry">
            <mxPoint x="-36" y="3" as="offset" />
          </mxGeometry>
        </mxCell>
        <mxCell id="BhFyUZFd25FzzBbPVuEt-61" value="" style="edgeStyle=orthogonalEdgeStyle;rounded=1;orthogonalLoop=1;jettySize=auto;html=1;" edge="1" parent="BhFyUZFd25FzzBbPVuEt-1" source="BhFyUZFd25FzzBbPVuEt-63" target="BhFyUZFd25FzzBbPVuEt-65">
          <mxGeometry relative="1" as="geometry" />
        </mxCell>
        <mxCell id="BhFyUZFd25FzzBbPVuEt-62" value="Yes" style="edgeLabel;html=1;align=center;verticalAlign=middle;resizable=0;points=[];rounded=1;" vertex="1" connectable="0" parent="BhFyUZFd25FzzBbPVuEt-61">
          <mxGeometry x="-0.2323" y="1" relative="1" as="geometry">
            <mxPoint x="-1" y="-14" as="offset" />
          </mxGeometry>
        </mxCell>
        <mxCell id="BhFyUZFd25FzzBbPVuEt-63" value="Is a&lt;br&gt;Tracker?" style="rhombus;whiteSpace=wrap;html=1;rounded=1;arcSize=14;strokeWidth=2;" vertex="1" parent="BhFyUZFd25FzzBbPVuEt-1">
          <mxGeometry x="220" y="580" width="80" height="80" as="geometry" />
        </mxCell>
        <mxCell id="BhFyUZFd25FzzBbPVuEt-64" value="" style="edgeStyle=orthogonalEdgeStyle;rounded=1;orthogonalLoop=1;jettySize=auto;html=1;" edge="1" parent="BhFyUZFd25FzzBbPVuEt-1" source="BhFyUZFd25FzzBbPVuEt-65" target="BhFyUZFd25FzzBbPVuEt-67">
          <mxGeometry relative="1" as="geometry" />
        </mxCell>
        <mxCell id="BhFyUZFd25FzzBbPVuEt-65" value="Trackers" style="whiteSpace=wrap;html=1;rounded=1;arcSize=14;strokeWidth=2;" vertex="1" parent="BhFyUZFd25FzzBbPVuEt-1">
          <mxGeometry x="200" y="750" width="120" height="60" as="geometry" />
        </mxCell>
        <mxCell id="BhFyUZFd25FzzBbPVuEt-66" style="edgeStyle=orthogonalEdgeStyle;rounded=1;orthogonalLoop=1;jettySize=auto;html=1;entryX=0;entryY=0.5;entryDx=0;entryDy=0;" edge="1" parent="BhFyUZFd25FzzBbPVuEt-1" source="BhFyUZFd25FzzBbPVuEt-67" target="BhFyUZFd25FzzBbPVuEt-104">
          <mxGeometry relative="1" as="geometry">
            <mxPoint x="1090" y="780" as="targetPoint" />
          </mxGeometry>
        </mxCell>
        <mxCell id="BhFyUZFd25FzzBbPVuEt-67" value="Incubating" style="whiteSpace=wrap;html=1;rounded=1;arcSize=14;strokeWidth=2;" vertex="1" parent="BhFyUZFd25FzzBbPVuEt-1">
          <mxGeometry x="540" y="750" width="120" height="60" as="geometry" />
        </mxCell>
        <mxCell id="BhFyUZFd25FzzBbPVuEt-68" value="* Mondays and Wednesdays are triage days" style="text;html=1;strokeColor=none;fillColor=none;align=center;verticalAlign=middle;whiteSpace=wrap;rounded=1;" vertex="1" parent="BhFyUZFd25FzzBbPVuEt-1">
          <mxGeometry x="309" y="447" width="110" height="50" as="geometry" />
        </mxCell>
        <mxCell id="BhFyUZFd25FzzBbPVuEt-69" value="UX" style="shape=umlActor;verticalLabelPosition=bottom;verticalAlign=top;html=1;outlineConnect=0;rounded=1;" vertex="1" parent="BhFyUZFd25FzzBbPVuEt-1">
          <mxGeometry x="60" y="85" width="30" height="60" as="geometry" />
        </mxCell>
        <mxCell id="BhFyUZFd25FzzBbPVuEt-70" value="Dev&lt;br&gt;Feature Owner" style="shape=umlActor;verticalLabelPosition=bottom;verticalAlign=top;html=1;outlineConnect=0;rounded=1;" vertex="1" parent="BhFyUZFd25FzzBbPVuEt-1">
          <mxGeometry x="55" y="392" width="30" height="60" as="geometry" />
        </mxCell>
        <mxCell id="BhFyUZFd25FzzBbPVuEt-71" style="edgeStyle=orthogonalEdgeStyle;rounded=1;orthogonalLoop=1;jettySize=auto;html=1;entryX=0.5;entryY=0;entryDx=0;entryDy=0;exitX=1;exitY=0.5;exitDx=0;exitDy=0;" edge="1" parent="BhFyUZFd25FzzBbPVuEt-1" source="BhFyUZFd25FzzBbPVuEt-73" target="BhFyUZFd25FzzBbPVuEt-58">
          <mxGeometry relative="1" as="geometry">
            <Array as="points">
              <mxPoint x="260" y="350" />
              <mxPoint x="260" y="350" />
            </Array>
          </mxGeometry>
        </mxCell>
        <mxCell id="BhFyUZFd25FzzBbPVuEt-72" value="No" style="edgeLabel;html=1;align=center;verticalAlign=middle;resizable=0;points=[];rounded=1;" vertex="1" connectable="0" parent="BhFyUZFd25FzzBbPVuEt-71">
          <mxGeometry x="-0.5808" relative="1" as="geometry">
            <mxPoint x="-12" as="offset" />
          </mxGeometry>
        </mxCell>
        <mxCell id="BhFyUZFd25FzzBbPVuEt-73" value="Manual&lt;br&gt;Intervention?" style="rhombus;whiteSpace=wrap;html=1;rounded=1;" vertex="1" parent="BhFyUZFd25FzzBbPVuEt-1">
          <mxGeometry x="90" y="270" width="100" height="100" as="geometry" />
        </mxCell>
        <mxCell id="BhFyUZFd25FzzBbPVuEt-74" value="UX" style="shape=umlActor;verticalLabelPosition=bottom;verticalAlign=top;html=1;outlineConnect=0;rounded=1;labelBackgroundColor=default;" vertex="1" parent="BhFyUZFd25FzzBbPVuEt-1">
          <mxGeometry x="-510" y="590" width="30" height="60" as="geometry" />
        </mxCell>
        <mxCell id="BhFyUZFd25FzzBbPVuEt-75" value="Dev" style="shape=umlActor;verticalLabelPosition=bottom;verticalAlign=top;html=1;outlineConnect=0;rounded=1;" vertex="1" parent="BhFyUZFd25FzzBbPVuEt-1">
          <mxGeometry x="-510" y="480" width="30" height="60" as="geometry" />
        </mxCell>
        <mxCell id="BhFyUZFd25FzzBbPVuEt-76" value="Dev" style="shape=umlActor;verticalLabelPosition=bottom;verticalAlign=top;html=1;outlineConnect=0;rounded=1;" vertex="1" parent="BhFyUZFd25FzzBbPVuEt-1">
          <mxGeometry x="-510" y="370" width="30" height="60" as="geometry" />
        </mxCell>
        <mxCell id="BhFyUZFd25FzzBbPVuEt-77" value="UX Lead / UI Owner" style="shape=umlActor;verticalLabelPosition=bottom;verticalAlign=top;html=1;outlineConnect=0;rounded=1;" vertex="1" parent="BhFyUZFd25FzzBbPVuEt-1">
          <mxGeometry x="-510" y="260" width="30" height="60" as="geometry" />
        </mxCell>
        <mxCell id="BhFyUZFd25FzzBbPVuEt-78" value="Community&lt;br&gt;Backend Dev&lt;br&gt;UI&lt;br&gt;UX&lt;br&gt;etc..." style="shape=umlActor;verticalLabelPosition=bottom;verticalAlign=top;html=1;outlineConnect=0;rounded=1;" vertex="1" parent="BhFyUZFd25FzzBbPVuEt-1">
          <mxGeometry x="-260" y="90" width="30" height="60" as="geometry" />
        </mxCell>
        <mxCell id="BhFyUZFd25FzzBbPVuEt-79" value="UX Lead Planning" style="text;html=1;align=center;verticalAlign=middle;whiteSpace=wrap;rounded=1;fillColor=none;strokeColor=#6c8ebf;" vertex="1" parent="BhFyUZFd25FzzBbPVuEt-1">
          <mxGeometry x="490" y="63" width="110" height="30" as="geometry" />
        </mxCell>
        <mxCell id="BhFyUZFd25FzzBbPVuEt-80" value="UX Picks Up Work" style="text;html=1;align=center;verticalAlign=middle;whiteSpace=wrap;rounded=1;fillColor=none;strokeColor=#6c8ebf;" vertex="1" parent="BhFyUZFd25FzzBbPVuEt-1">
          <mxGeometry x="660" y="63" width="110" height="30" as="geometry" />
        </mxCell>
        <mxCell id="BhFyUZFd25FzzBbPVuEt-81" value="UX Work Complete" style="text;html=1;align=center;verticalAlign=middle;whiteSpace=wrap;rounded=1;fillColor=none;strokeColor=#6c8ebf;" vertex="1" parent="BhFyUZFd25FzzBbPVuEt-1">
          <mxGeometry x="830" y="63" width="120" height="30" as="geometry" />
        </mxCell>
        <mxCell id="BhFyUZFd25FzzBbPVuEt-82" value="Dev Work Needed" style="text;html=1;align=center;verticalAlign=middle;whiteSpace=wrap;rounded=1;fillColor=none;strokeColor=#6c8ebf;" vertex="1" parent="BhFyUZFd25FzzBbPVuEt-1">
          <mxGeometry x="964" y="191" width="110" height="30" as="geometry" />
        </mxCell>
        <mxCell id="BhFyUZFd25FzzBbPVuEt-83" value="Internal UX Work Complete" style="text;html=1;align=center;verticalAlign=middle;whiteSpace=wrap;rounded=1;fillColor=none;strokeColor=#6c8ebf;" vertex="1" parent="BhFyUZFd25FzzBbPVuEt-1">
          <mxGeometry x="1074" y="81" width="90" height="40" as="geometry" />
        </mxCell>
        <mxCell id="BhFyUZFd25FzzBbPVuEt-84" value="Dev Picks Up Work" style="text;html=1;align=center;verticalAlign=middle;whiteSpace=wrap;rounded=1;fillColor=none;strokeColor=#6c8ebf;" vertex="1" parent="BhFyUZFd25FzzBbPVuEt-1">
          <mxGeometry x="822.5" y="480" width="125" height="30" as="geometry" />
        </mxCell>
        <mxCell id="BhFyUZFd25FzzBbPVuEt-85" value="Dev Completes Work" style="text;html=1;align=center;verticalAlign=middle;whiteSpace=wrap;rounded=1;fillColor=none;strokeColor=#6c8ebf;" vertex="1" parent="BhFyUZFd25FzzBbPVuEt-1">
          <mxGeometry x="820" y="655" width="130" height="30" as="geometry" />
        </mxCell>
        <mxCell id="BhFyUZFd25FzzBbPVuEt-86" value="UX Already Determined&lt;br&gt;or&lt;br&gt;No UX Needed" style="text;html=1;align=center;verticalAlign=middle;whiteSpace=wrap;rounded=1;fillColor=none;strokeColor=#6c8ebf;" vertex="1" parent="BhFyUZFd25FzzBbPVuEt-1">
          <mxGeometry x="530" y="370" width="170" height="50" as="geometry" />
        </mxCell>
        <mxCell id="BhFyUZFd25FzzBbPVuEt-87" value="Work Needs UX Before Dev" style="text;html=1;align=center;verticalAlign=middle;whiteSpace=wrap;rounded=1;fillColor=none;strokeColor=#6c8ebf;" vertex="1" parent="BhFyUZFd25FzzBbPVuEt-1">
          <mxGeometry x="345" y="345" width="110" height="40" as="geometry" />
        </mxCell>
        <mxCell id="BhFyUZFd25FzzBbPVuEt-88" value="Valid Issue" style="text;html=1;align=center;verticalAlign=middle;whiteSpace=wrap;rounded=1;fillColor=none;strokeColor=#6c8ebf;" vertex="1" parent="BhFyUZFd25FzzBbPVuEt-1">
          <mxGeometry x="485" y="547" width="80" height="30" as="geometry" />
        </mxCell>
        <mxCell id="BhFyUZFd25FzzBbPVuEt-89" value="Not A Dashboard Desired Change" style="text;html=1;align=center;verticalAlign=middle;whiteSpace=wrap;rounded=1;fillColor=none;strokeColor=#6c8ebf;" vertex="1" parent="BhFyUZFd25FzzBbPVuEt-1">
          <mxGeometry x="510" y="637" width="110" height="40" as="geometry" />
        </mxCell>
        <mxCell id="BhFyUZFd25FzzBbPVuEt-90" value="Non-Tracker Issue" style="text;html=1;align=center;verticalAlign=middle;whiteSpace=wrap;rounded=1;fillColor=none;strokeColor=#6c8ebf;" vertex="1" parent="BhFyUZFd25FzzBbPVuEt-1">
          <mxGeometry x="303" y="571" width="80" height="40" as="geometry" />
        </mxCell>
        <mxCell id="BhFyUZFd25FzzBbPVuEt-91" value="Tracker Not Properly Pre-Triaged" style="text;html=1;align=center;verticalAlign=middle;whiteSpace=wrap;rounded=1;fillColor=none;strokeColor=#6c8ebf;" vertex="1" parent="BhFyUZFd25FzzBbPVuEt-1">
          <mxGeometry x="270" y="701" width="120" height="40" as="geometry" />
        </mxCell>
        <mxCell id="BhFyUZFd25FzzBbPVuEt-92" value="Feature Owner &lt;br&gt;Pre-Triages Tracker" style="text;html=1;align=center;verticalAlign=middle;whiteSpace=wrap;rounded=1;fillColor=none;strokeColor=#6c8ebf;" vertex="1" parent="BhFyUZFd25FzzBbPVuEt-1">
          <mxGeometry x="10" y="497" width="120" height="40" as="geometry" />
        </mxCell>
        <mxCell id="BhFyUZFd25FzzBbPVuEt-93" value="Internal UX Issue &amp;amp; Needs No Development" style="text;html=1;align=center;verticalAlign=middle;whiteSpace=wrap;rounded=1;fillColor=none;strokeColor=#6c8ebf;" vertex="1" parent="BhFyUZFd25FzzBbPVuEt-1">
          <mxGeometry x="6" y="185" width="120" height="50" as="geometry" />
        </mxCell>
        <mxCell id="BhFyUZFd25FzzBbPVuEt-94" value="Feature Complete &amp;amp; Merged to Incubation Branch" style="text;html=1;align=center;verticalAlign=middle;whiteSpace=wrap;rounded=1;fillColor=none;strokeColor=#6c8ebf;" vertex="1" parent="BhFyUZFd25FzzBbPVuEt-1">
          <mxGeometry x="370" y="790" width="120" height="50" as="geometry" />
        </mxCell>
        <mxCell id="BhFyUZFd25FzzBbPVuEt-95" value="Feature Merged To Main" style="text;html=1;align=center;verticalAlign=middle;whiteSpace=wrap;rounded=1;fillColor=none;strokeColor=#6c8ebf;" vertex="1" parent="BhFyUZFd25FzzBbPVuEt-1">
          <mxGeometry x="680" y="795" width="130" height="35" as="geometry" />
        </mxCell>
        <mxCell id="BhFyUZFd25FzzBbPVuEt-96" value="UX" style="shape=umlActor;verticalLabelPosition=bottom;verticalAlign=top;html=1;outlineConnect=0;rounded=1;" vertex="1" parent="BhFyUZFd25FzzBbPVuEt-1">
          <mxGeometry x="690" y="-42" width="30" height="60" as="geometry" />
        </mxCell>
        <mxCell id="BhFyUZFd25FzzBbPVuEt-97" value="Dev" style="shape=umlActor;verticalLabelPosition=bottom;verticalAlign=top;html=1;outlineConnect=0;shadow=0;rounded=1;" vertex="1" parent="BhFyUZFd25FzzBbPVuEt-1">
          <mxGeometry x="838" y="541" width="30" height="60" as="geometry" />
        </mxCell>
        <mxCell id="BhFyUZFd25FzzBbPVuEt-98" value="UX" style="shape=umlActor;verticalLabelPosition=bottom;verticalAlign=top;html=1;outlineConnect=0;shadow=0;rounded=1;" vertex="1" parent="BhFyUZFd25FzzBbPVuEt-1">
          <mxGeometry x="1143" y="137" width="30" height="60" as="geometry" />
        </mxCell>
        <mxCell id="BhFyUZFd25FzzBbPVuEt-99" value="Dev&lt;br&gt;Feature Owner" style="shape=umlActor;verticalLabelPosition=bottom;verticalAlign=top;html=1;outlineConnect=0;rounded=1;" vertex="1" parent="BhFyUZFd25FzzBbPVuEt-1">
          <mxGeometry x="510" y="840" width="30" height="60" as="geometry" />
        </mxCell>
        <mxCell id="BhFyUZFd25FzzBbPVuEt-100" style="edgeStyle=orthogonalEdgeStyle;rounded=1;orthogonalLoop=1;jettySize=auto;html=1;entryX=0.5;entryY=0;entryDx=0;entryDy=0;" edge="1" parent="BhFyUZFd25FzzBbPVuEt-1" source="BhFyUZFd25FzzBbPVuEt-101" target="BhFyUZFd25FzzBbPVuEt-29">
          <mxGeometry relative="1" as="geometry" />
        </mxCell>
        <mxCell id="BhFyUZFd25FzzBbPVuEt-101" value="Dev Ready" style="whiteSpace=wrap;html=1;rounded=1;arcSize=14;strokeWidth=2;shadow=0;" vertex="1" parent="BhFyUZFd25FzzBbPVuEt-1">
          <mxGeometry x="900" y="258" width="120" height="60" as="geometry" />
        </mxCell>
        <mxCell id="BhFyUZFd25FzzBbPVuEt-102" value="Advisor&lt;br&gt;Sign off" style="shape=umlActor;verticalLabelPosition=bottom;verticalAlign=top;html=1;outlineConnect=0;shadow=0;rounded=1;" vertex="1" parent="BhFyUZFd25FzzBbPVuEt-1">
          <mxGeometry x="843" y="228" width="30" height="60" as="geometry" />
        </mxCell>
        <mxCell id="BhFyUZFd25FzzBbPVuEt-103" value="Ready for Dev" style="text;html=1;align=center;verticalAlign=middle;whiteSpace=wrap;rounded=1;fillColor=none;strokeColor=#6c8ebf;" vertex="1" parent="BhFyUZFd25FzzBbPVuEt-1">
          <mxGeometry x="835" y="331" width="110" height="30" as="geometry" />
        </mxCell>
        <mxCell id="BhFyUZFd25FzzBbPVuEt-104" value="Done&lt;br&gt;(Issue is closed)" style="whiteSpace=wrap;html=1;rounded=1;arcSize=14;strokeWidth=2;shadow=0;" vertex="1" parent="BhFyUZFd25FzzBbPVuEt-1">
          <mxGeometry x="1063" y="750" width="120" height="60" as="geometry" />
        </mxCell>
        <mxCell id="BhFyUZFd25FzzBbPVuEt-105" value="" style="curved=1;endArrow=classic;html=1;rounded=1;exitX=1;exitY=0;exitDx=0;exitDy=0;entryX=0;entryY=0;entryDx=0;entryDy=0;fillColor=#ffe6cc;strokeColor=#d79b00;" edge="1" parent="BhFyUZFd25FzzBbPVuEt-1" source="BhFyUZFd25FzzBbPVuEt-73" target="BhFyUZFd25FzzBbPVuEt-29">
          <mxGeometry width="50" height="50" relative="1" as="geometry">
            <mxPoint x="539" y="442" as="sourcePoint" />
            <mxPoint x="589" y="392" as="targetPoint" />
            <Array as="points">
              <mxPoint x="286" y="251" />
              <mxPoint x="637" y="267" />
            </Array>
          </mxGeometry>
        </mxCell>
        <mxCell id="BhFyUZFd25FzzBbPVuEt-106" value="Yes" style="edgeLabel;html=1;align=center;verticalAlign=middle;resizable=0;points=[];rounded=1;" vertex="1" connectable="0" parent="BhFyUZFd25FzzBbPVuEt-105">
          <mxGeometry x="-0.9319" y="-3" relative="1" as="geometry">
            <mxPoint x="-4" y="1" as="offset" />
          </mxGeometry>
        </mxCell>
        <mxCell id="BhFyUZFd25FzzBbPVuEt-107" value="Feature Owner &lt;br&gt;Pre-Triages Story" style="text;html=1;align=center;verticalAlign=middle;whiteSpace=wrap;rounded=1;fillColor=none;strokeColor=#6c8ebf;" vertex="1" parent="BhFyUZFd25FzzBbPVuEt-1">
          <mxGeometry x="303" y="202" width="120" height="40" as="geometry" />
        </mxCell>
        <mxCell id="BhFyUZFd25FzzBbPVuEt-108" value="Dev&lt;br&gt;Feature Owner" style="shape=umlActor;verticalLabelPosition=bottom;verticalAlign=top;html=1;outlineConnect=0;rounded=1;" vertex="1" parent="BhFyUZFd25FzzBbPVuEt-1">
          <mxGeometry x="245" y="167" width="30" height="60" as="geometry" />
        </mxCell>
        <mxCell id="0TdU5qi6t2wPccZoAybg-0" value="" style="rounded=0;whiteSpace=wrap;html=1;" vertex="1" parent="BhFyUZFd25FzzBbPVuEt-1">
          <mxGeometry x="-665" y="-261" width="60" height="60" as="geometry" />
        </mxCell>
      </root>
    </mxGraphModel>
  </diagram>
  <diagram name="Branches (full)" id="AwpEzz4uakRlpEkMCo_I">
    <mxGraphModel dx="1368" dy="540" grid="1" gridSize="10" guides="1" tooltips="1" connect="1" arrows="1" fold="1" page="0" pageScale="1" pageWidth="850" pageHeight="1100" math="0" shadow="0">
      <root>
        <mxCell id="V6d8Bu8HBfBKY3MIqy9H-0" />
        <mxCell id="V6d8Bu8HBfBKY3MIqy9H-1" parent="V6d8Bu8HBfBKY3MIqy9H-0" />
        <mxCell id="7y8WovfI9H8kaYhyyjkp-0" value="" style="rounded=0;whiteSpace=wrap;html=1;hachureGap=4;fontFamily=Architects Daughter;fontSource=https%3A%2F%2Ffonts.googleapis.com%2Fcss%3Ffamily%3DArchitects%2BDaughter;fontSize=20;labelBackgroundColor=#0A0A0A;noLabel=1;fillColor=#FFFFFF;" vertex="1" parent="V6d8Bu8HBfBKY3MIqy9H-1">
          <mxGeometry x="-340" y="30" width="810" height="450" as="geometry" />
        </mxCell>
        <mxCell id="V6d8Bu8HBfBKY3MIqy9H-2" value="" style="endArrow=classic;html=1;rounded=0;strokeWidth=3;fillColor=#d0cee2;strokeColor=#56517e;" edge="1" parent="V6d8Bu8HBfBKY3MIqy9H-1">
          <mxGeometry width="50" height="50" relative="1" as="geometry">
            <mxPoint x="-320" y="80" as="sourcePoint" />
            <mxPoint x="440" y="80" as="targetPoint" />
          </mxGeometry>
        </mxCell>
        <mxCell id="V6d8Bu8HBfBKY3MIqy9H-4" value="" style="endArrow=classic;html=1;rounded=0;strokeWidth=3;fillColor=#fad9d5;strokeColor=#ae4132;" edge="1" parent="V6d8Bu8HBfBKY3MIqy9H-1">
          <mxGeometry width="50" height="50" relative="1" as="geometry">
            <mxPoint x="-240" y="240" as="sourcePoint" />
            <mxPoint x="440" y="240" as="targetPoint" />
          </mxGeometry>
        </mxCell>
        <mxCell id="V6d8Bu8HBfBKY3MIqy9H-6" value="" style="endArrow=oval;html=1;rounded=0;strokeWidth=3;edgeStyle=orthogonalEdgeStyle;curved=1;endFill=1;startArrow=oval;startFill=1;fillColor=#b1ddf0;strokeColor=#10739e;" edge="1" parent="V6d8Bu8HBfBKY3MIqy9H-1">
          <mxGeometry width="50" height="50" relative="1" as="geometry">
            <mxPoint x="-240" y="80" as="sourcePoint" />
            <mxPoint x="-200" y="120" as="targetPoint" />
            <Array as="points">
              <mxPoint x="-230" y="81" />
              <mxPoint x="-230" y="120" />
            </Array>
          </mxGeometry>
        </mxCell>
        <mxCell id="V6d8Bu8HBfBKY3MIqy9H-10" value="main" style="rounded=1;whiteSpace=wrap;html=1;fillColor=#d0cee2;strokeColor=#56517e;fontSize=10;verticalAlign=middle;" vertex="1" parent="V6d8Bu8HBfBKY3MIqy9H-1">
          <mxGeometry x="-320" y="59" width="40" height="14" as="geometry" />
        </mxCell>
        <mxCell id="V6d8Bu8HBfBKY3MIqy9H-11" value="feature A" style="rounded=1;whiteSpace=wrap;html=1;fillColor=#b1ddf0;strokeColor=#10739e;fontSize=10;" vertex="1" parent="V6d8Bu8HBfBKY3MIqy9H-1">
          <mxGeometry x="-200" y="99" width="60" height="14" as="geometry" />
        </mxCell>
        <mxCell id="V6d8Bu8HBfBKY3MIqy9H-12" value="incubation" style="rounded=1;whiteSpace=wrap;html=1;fillColor=#fad9d5;strokeColor=#ae4132;fontSize=10;" vertex="1" parent="V6d8Bu8HBfBKY3MIqy9H-1">
          <mxGeometry x="-240" y="220" width="60" height="14" as="geometry" />
        </mxCell>
        <mxCell id="6VGkj1erZa4g-npJZkaR-0" value="" style="endArrow=oval;html=1;rounded=0;strokeWidth=3;fillColor=#fad9d5;strokeColor=#ae4132;endFill=1;startArrow=oval;startFill=1;edgeStyle=orthogonalEdgeStyle;curved=1;" edge="1" parent="V6d8Bu8HBfBKY3MIqy9H-1">
          <mxGeometry width="50" height="50" relative="1" as="geometry">
            <mxPoint x="-280" y="80" as="sourcePoint" />
            <mxPoint x="-240" y="240" as="targetPoint" />
            <Array as="points">
              <mxPoint x="-260" y="80" />
              <mxPoint x="-260" y="240" />
            </Array>
          </mxGeometry>
        </mxCell>
        <mxCell id="6VGkj1erZa4g-npJZkaR-2" value="" style="endArrow=oval;html=1;rounded=0;strokeWidth=3;endFill=1;startArrow=oval;startFill=1;edgeStyle=orthogonalEdgeStyle;curved=1;fillColor=#fad7ac;strokeColor=#b46504;" edge="1" parent="V6d8Bu8HBfBKY3MIqy9H-1">
          <mxGeometry width="50" height="50" relative="1" as="geometry">
            <mxPoint x="-40" y="160" as="sourcePoint" />
            <mxPoint x="-80" y="80" as="targetPoint" />
            <Array as="points">
              <mxPoint x="-60" y="160" />
              <mxPoint x="-60" y="80" />
            </Array>
          </mxGeometry>
        </mxCell>
        <mxCell id="6VGkj1erZa4g-npJZkaR-4" value="feature B" style="rounded=1;whiteSpace=wrap;html=1;fillColor=#fad7ac;strokeColor=#b46504;fontSize=10;" vertex="1" parent="V6d8Bu8HBfBKY3MIqy9H-1">
          <mxGeometry x="-40" y="140" width="60" height="14" as="geometry" />
        </mxCell>
        <mxCell id="6VGkj1erZa4g-npJZkaR-5" value="" style="endArrow=oval;html=1;rounded=0;strokeWidth=3;fillColor=#b1ddf0;strokeColor=#10739e;endFill=1;startArrow=oval;startFill=1;edgeStyle=orthogonalEdgeStyle;curved=1;" edge="1" parent="V6d8Bu8HBfBKY3MIqy9H-1">
          <mxGeometry width="50" height="50" relative="1" as="geometry">
            <mxPoint x="-160" y="120" as="sourcePoint" />
            <mxPoint x="-120" y="240" as="targetPoint" />
            <Array as="points">
              <mxPoint x="-140" y="120" />
              <mxPoint x="-140" y="240" />
            </Array>
          </mxGeometry>
        </mxCell>
        <mxCell id="6VGkj1erZa4g-npJZkaR-7" value="" style="endArrow=oval;html=1;rounded=0;strokeWidth=3;endFill=1;startArrow=oval;startFill=1;edgeStyle=orthogonalEdgeStyle;curved=1;fillColor=#fad7ac;strokeColor=#b46504;" edge="1" parent="V6d8Bu8HBfBKY3MIqy9H-1">
          <mxGeometry width="50" height="50" relative="1" as="geometry">
            <mxPoint x="40" y="240" as="sourcePoint" />
            <mxPoint y="160" as="targetPoint" />
            <Array as="points">
              <mxPoint x="20" y="240" />
              <mxPoint x="20" y="160" />
            </Array>
          </mxGeometry>
        </mxCell>
        <mxCell id="6VGkj1erZa4g-npJZkaR-8" value="" style="endArrow=oval;html=1;rounded=0;strokeWidth=3;endFill=1;startArrow=oval;startFill=1;edgeStyle=orthogonalEdgeStyle;curved=1;fillColor=#fad7ac;strokeColor=#b46504;" edge="1" parent="V6d8Bu8HBfBKY3MIqy9H-1">
          <mxGeometry width="50" height="50" relative="1" as="geometry">
            <mxPoint x="80" y="240" as="sourcePoint" />
            <mxPoint x="40" y="160" as="targetPoint" />
            <Array as="points">
              <mxPoint x="60" y="240" />
              <mxPoint x="60" y="160" />
            </Array>
          </mxGeometry>
        </mxCell>
        <mxCell id="6VGkj1erZa4g-npJZkaR-9" value="" style="endArrow=oval;html=1;rounded=0;strokeWidth=3;fillColor=#d0cee2;strokeColor=#56517e;endFill=1;startArrow=oval;startFill=1;edgeStyle=orthogonalEdgeStyle;curved=1;" edge="1" parent="V6d8Bu8HBfBKY3MIqy9H-1">
          <mxGeometry width="50" height="50" relative="1" as="geometry">
            <mxPoint x="280" y="80" as="sourcePoint" />
            <mxPoint x="320" y="240" as="targetPoint" />
            <Array as="points">
              <mxPoint x="300" y="80" />
              <mxPoint x="300" y="240" />
            </Array>
          </mxGeometry>
        </mxCell>
        <mxCell id="6VGkj1erZa4g-npJZkaR-10" value="" style="endArrow=oval;html=1;rounded=0;strokeWidth=3;fillColor=#b1ddf0;strokeColor=#10739e;endFill=1;startArrow=oval;startFill=1;edgeStyle=orthogonalEdgeStyle;curved=1;" edge="1" parent="V6d8Bu8HBfBKY3MIqy9H-1">
          <mxGeometry width="50" height="50" relative="1" as="geometry">
            <mxPoint x="80" y="120" as="sourcePoint" />
            <mxPoint x="120" y="240" as="targetPoint" />
            <Array as="points">
              <mxPoint x="100" y="120" />
              <mxPoint x="100" y="240" />
            </Array>
          </mxGeometry>
        </mxCell>
        <mxCell id="6VGkj1erZa4g-npJZkaR-11" value="" style="endArrow=oval;html=1;rounded=0;strokeWidth=3;fillColor=#008a00;strokeColor=#005700;endFill=1;startArrow=oval;startFill=1;edgeStyle=orthogonalEdgeStyle;curved=1;" edge="1" parent="V6d8Bu8HBfBKY3MIqy9H-1">
          <mxGeometry width="50" height="50" relative="1" as="geometry">
            <mxPoint x="120" y="80" as="sourcePoint" />
            <mxPoint x="160" y="200" as="targetPoint" />
            <Array as="points">
              <mxPoint x="140" y="80" />
              <mxPoint x="140" y="200" />
            </Array>
          </mxGeometry>
        </mxCell>
        <mxCell id="6VGkj1erZa4g-npJZkaR-13" value="feature C" style="rounded=1;whiteSpace=wrap;html=1;fillColor=#008a00;strokeColor=#005700;fontSize=10;fontColor=#ffffff;" vertex="1" parent="V6d8Bu8HBfBKY3MIqy9H-1">
          <mxGeometry x="160" y="180" width="60" height="14" as="geometry" />
        </mxCell>
        <mxCell id="6VGkj1erZa4g-npJZkaR-14" value="" style="endArrow=oval;html=1;rounded=0;strokeWidth=3;fillColor=#d0cee2;strokeColor=#56517e;endFill=1;startArrow=oval;startFill=1;edgeStyle=orthogonalEdgeStyle;curved=1;" edge="1" parent="V6d8Bu8HBfBKY3MIqy9H-1">
          <mxGeometry width="50" height="50" relative="1" as="geometry">
            <mxPoint x="-120" y="80" as="sourcePoint" />
            <mxPoint x="-80" y="240" as="targetPoint" />
            <Array as="points">
              <mxPoint x="-100" y="80" />
              <mxPoint x="-100" y="240" />
            </Array>
          </mxGeometry>
        </mxCell>
        <mxCell id="6VGkj1erZa4g-npJZkaR-1" value="" style="endArrow=block;html=1;rounded=0;strokeWidth=3;endFill=1;fillColor=#fad7ac;strokeColor=#b46504;" edge="1" parent="V6d8Bu8HBfBKY3MIqy9H-1">
          <mxGeometry width="50" height="50" relative="1" as="geometry">
            <mxPoint x="-40" y="160" as="sourcePoint" />
            <mxPoint x="440" y="160" as="targetPoint" />
          </mxGeometry>
        </mxCell>
        <mxCell id="V6d8Bu8HBfBKY3MIqy9H-3" value="" style="endArrow=none;html=1;rounded=0;strokeWidth=3;endFill=0;fillColor=#b1ddf0;strokeColor=#10739e;" edge="1" parent="V6d8Bu8HBfBKY3MIqy9H-1">
          <mxGeometry width="50" height="50" relative="1" as="geometry">
            <mxPoint x="-200" y="120" as="sourcePoint" />
            <mxPoint x="200" y="120" as="targetPoint" />
          </mxGeometry>
        </mxCell>
        <mxCell id="6VGkj1erZa4g-npJZkaR-12" value="" style="endArrow=block;html=1;rounded=0;strokeWidth=3;endFill=1;fillColor=#008a00;strokeColor=#005700;" edge="1" parent="V6d8Bu8HBfBKY3MIqy9H-1">
          <mxGeometry width="50" height="50" relative="1" as="geometry">
            <mxPoint x="160" y="200" as="sourcePoint" />
            <mxPoint x="440" y="200" as="targetPoint" />
          </mxGeometry>
        </mxCell>
        <mxCell id="6VGkj1erZa4g-npJZkaR-22" value="" style="image;sketch=0;aspect=fixed;html=1;points=[];align=center;fontSize=12;image=img/lib/mscae/Tag.svg;" vertex="1" parent="V6d8Bu8HBfBKY3MIqy9H-1">
          <mxGeometry x="310" y="252.5" width="23" height="23" as="geometry" />
        </mxCell>
        <mxCell id="6VGkj1erZa4g-npJZkaR-24" value="" style="image;sketch=0;aspect=fixed;html=1;points=[];align=center;fontSize=12;image=img/lib/mscae/Tag.svg;" vertex="1" parent="V6d8Bu8HBfBKY3MIqy9H-1">
          <mxGeometry x="270" y="50" width="23" height="23" as="geometry" />
        </mxCell>
        <mxCell id="Kzxfdkuo9IoKssRJAYCS-0" value="" style="endArrow=oval;html=1;rounded=0;endFill=1;startArrow=oval;startFill=1;strokeWidth=3;edgeStyle=orthogonalEdgeStyle;curved=1;fillColor=#b1ddf0;strokeColor=#10739e;" edge="1" parent="V6d8Bu8HBfBKY3MIqy9H-1">
          <mxGeometry width="50" height="50" relative="1" as="geometry">
            <mxPoint x="200" y="120" as="sourcePoint" />
            <mxPoint x="240" y="80" as="targetPoint" />
            <Array as="points">
              <mxPoint x="220" y="120" />
              <mxPoint x="220" y="80" />
            </Array>
          </mxGeometry>
        </mxCell>
        <mxCell id="DD1UAYoZDi2ZVNldqygL-0" value="" style="swimlane;startSize=0;rounded=1;" vertex="1" parent="V6d8Bu8HBfBKY3MIqy9H-1">
          <mxGeometry x="-180" y="300" width="500" height="160" as="geometry" />
        </mxCell>
        <mxCell id="DD1UAYoZDi2ZVNldqygL-7" value="&lt;h1&gt;Legend&lt;/h1&gt;" style="text;html=1;strokeColor=none;fillColor=none;spacing=5;spacingTop=-20;whiteSpace=wrap;overflow=hidden;rounded=1;fontStyle=4;align=center;" vertex="1" parent="DD1UAYoZDi2ZVNldqygL-0">
          <mxGeometry x="40" y="8" width="420" height="40" as="geometry" />
        </mxCell>
        <mxCell id="Kzxfdkuo9IoKssRJAYCS-1" value="" style="ellipse;whiteSpace=wrap;html=1;aspect=fixed;fillColor=#000000;" vertex="1" parent="DD1UAYoZDi2ZVNldqygL-0">
          <mxGeometry x="66" y="100" width="8" height="8" as="geometry" />
        </mxCell>
        <mxCell id="Kzxfdkuo9IoKssRJAYCS-3" value="Git commit" style="text;html=1;strokeColor=none;fillColor=none;align=center;verticalAlign=middle;whiteSpace=wrap;rounded=0;" vertex="1" parent="DD1UAYoZDi2ZVNldqygL-0">
          <mxGeometry x="30" y="113.51" width="80" height="30" as="geometry" />
        </mxCell>
        <mxCell id="Kzxfdkuo9IoKssRJAYCS-4" value="" style="endArrow=block;html=1;rounded=0;strokeWidth=3;endFill=1;" edge="1" parent="DD1UAYoZDi2ZVNldqygL-0">
          <mxGeometry width="50" height="50" relative="1" as="geometry">
            <mxPoint x="265" y="99.99999999999999" as="sourcePoint" />
            <mxPoint x="345" y="99.99999999999999" as="targetPoint" />
          </mxGeometry>
        </mxCell>
        <mxCell id="Kzxfdkuo9IoKssRJAYCS-5" value="On-going branch" style="text;html=1;strokeColor=none;fillColor=none;align=center;verticalAlign=middle;whiteSpace=wrap;rounded=0;" vertex="1" parent="DD1UAYoZDi2ZVNldqygL-0">
          <mxGeometry x="250" y="113.50999999999999" width="110" height="30" as="geometry" />
        </mxCell>
        <mxCell id="Kzxfdkuo9IoKssRJAYCS-8" value="" style="endArrow=oval;html=1;rounded=0;strokeWidth=3;edgeStyle=orthogonalEdgeStyle;curved=1;endFill=1;startArrow=oval;startFill=1;" edge="1" parent="DD1UAYoZDi2ZVNldqygL-0">
          <mxGeometry width="50" height="50" relative="1" as="geometry">
            <mxPoint x="159" y="73.49000000000001" as="sourcePoint" />
            <mxPoint x="199" y="113.49000000000001" as="targetPoint" />
            <Array as="points">
              <mxPoint x="179" y="73.50999999999999" />
              <mxPoint x="179" y="113.50999999999999" />
            </Array>
          </mxGeometry>
        </mxCell>
        <mxCell id="Kzxfdkuo9IoKssRJAYCS-9" value="Branch merge" style="text;html=1;strokeColor=none;fillColor=none;align=center;verticalAlign=middle;whiteSpace=wrap;rounded=0;" vertex="1" parent="DD1UAYoZDi2ZVNldqygL-0">
          <mxGeometry x="130" y="113.50999999999999" width="110" height="30" as="geometry" />
        </mxCell>
        <mxCell id="DD1UAYoZDi2ZVNldqygL-11" value="" style="image;sketch=0;aspect=fixed;html=1;points=[];align=center;fontSize=12;image=img/lib/mscae/Tag.svg;" vertex="1" parent="DD1UAYoZDi2ZVNldqygL-0">
          <mxGeometry x="413.5" y="85" width="23" height="23" as="geometry" />
        </mxCell>
        <mxCell id="DD1UAYoZDi2ZVNldqygL-12" value="Git Tag" style="text;html=1;strokeColor=none;fillColor=none;align=center;verticalAlign=middle;whiteSpace=wrap;rounded=0;" vertex="1" parent="DD1UAYoZDi2ZVNldqygL-0">
          <mxGeometry x="370" y="113.50999999999999" width="110" height="30" as="geometry" />
        </mxCell>
        <mxCell id="DD1UAYoZDi2ZVNldqygL-15" value="Incubation Release" style="rounded=1;whiteSpace=wrap;html=1;fillColor=#6a00ff;strokeColor=#3700CC;fontSize=10;fontColor=#ffffff;" vertex="1" parent="V6d8Bu8HBfBKY3MIqy9H-1">
          <mxGeometry x="340" y="257" width="97" height="14" as="geometry" />
        </mxCell>
        <mxCell id="DD1UAYoZDi2ZVNldqygL-16" value="Stable Release" style="rounded=1;whiteSpace=wrap;html=1;fillColor=#6a00ff;strokeColor=#3700CC;fontSize=10;fontColor=#ffffff;" vertex="1" parent="V6d8Bu8HBfBKY3MIqy9H-1">
          <mxGeometry x="300" y="54.5" width="80" height="14" as="geometry" />
        </mxCell>
      </root>
    </mxGraphModel>
  </diagram>
  <diagram id="cy90ghCYLBocAS6hJseY" name="Branches (basic)">
    <mxGraphModel dx="1407" dy="562" grid="1" gridSize="10" guides="1" tooltips="1" connect="1" arrows="1" fold="1" page="0" pageScale="1" pageWidth="850" pageHeight="1100" math="0" shadow="0">
      <root>
        <mxCell id="0" />
        <mxCell id="1" parent="0" />
        <mxCell id="gCE94JIJTwvUPZ2xu3cP-1" value="" style="rounded=0;whiteSpace=wrap;html=1;hachureGap=4;fontFamily=Architects Daughter;fontSource=https%3A%2F%2Ffonts.googleapis.com%2Fcss%3Ffamily%3DArchitects%2BDaughter;fontSize=20;labelBackgroundColor=#0A0A0A;noLabel=1;fillColor=#FFFFFF;" vertex="1" parent="1">
          <mxGeometry x="-330" y="50" width="540" height="300" as="geometry" />
        </mxCell>
        <mxCell id="qAHA50P31FC1RU9cQXs8-1" value="" style="endArrow=classic;html=1;rounded=0;strokeWidth=3;fillColor=#d0cee2;strokeColor=#56517e;" edge="1" parent="1">
          <mxGeometry width="50" height="50" relative="1" as="geometry">
            <mxPoint x="-320" y="80" as="sourcePoint" />
            <mxPoint x="200" y="80" as="targetPoint" />
          </mxGeometry>
        </mxCell>
        <mxCell id="qAHA50P31FC1RU9cQXs8-2" value="" style="endArrow=none;html=1;rounded=0;strokeWidth=3;endFill=0;fillColor=#b1ddf0;strokeColor=#10739e;" edge="1" parent="1">
          <mxGeometry width="50" height="50" relative="1" as="geometry">
            <mxPoint x="-200" y="120" as="sourcePoint" />
            <mxPoint x="120" y="120" as="targetPoint" />
          </mxGeometry>
        </mxCell>
        <mxCell id="qAHA50P31FC1RU9cQXs8-3" value="" style="endArrow=classic;html=1;rounded=0;strokeWidth=3;fillColor=#fad9d5;strokeColor=#ae4132;" edge="1" parent="1">
          <mxGeometry width="50" height="50" relative="1" as="geometry">
            <mxPoint x="-240" y="160" as="sourcePoint" />
            <mxPoint x="200" y="160" as="targetPoint" />
          </mxGeometry>
        </mxCell>
        <mxCell id="qAHA50P31FC1RU9cQXs8-7" value="" style="endArrow=oval;html=1;rounded=0;startArrow=oval;startFill=1;strokeWidth=3;endFill=1;edgeStyle=orthogonalEdgeStyle;curved=1;fillColor=#fad9d5;strokeColor=#ae4132;" edge="1" parent="1">
          <mxGeometry width="50" height="50" relative="1" as="geometry">
            <mxPoint x="-280" y="80" as="sourcePoint" />
            <mxPoint x="-240" y="160" as="targetPoint" />
            <Array as="points">
              <mxPoint x="-260" y="80" />
              <mxPoint x="-260" y="160" />
            </Array>
          </mxGeometry>
        </mxCell>
        <mxCell id="qAHA50P31FC1RU9cQXs8-9" value="" style="endArrow=oval;html=1;rounded=0;strokeWidth=3;edgeStyle=orthogonalEdgeStyle;curved=1;endFill=1;startArrow=oval;startFill=1;fillColor=#b1ddf0;strokeColor=#10739e;" edge="1" parent="1">
          <mxGeometry width="50" height="50" relative="1" as="geometry">
            <mxPoint x="-240" y="80" as="sourcePoint" />
            <mxPoint x="-200" y="120" as="targetPoint" />
            <Array as="points">
              <mxPoint x="-230" y="81" />
              <mxPoint x="-230" y="120" />
            </Array>
          </mxGeometry>
        </mxCell>
        <mxCell id="qAHA50P31FC1RU9cQXs8-10" value="" style="endArrow=oval;html=1;rounded=0;strokeWidth=3;edgeStyle=orthogonalEdgeStyle;curved=1;endFill=1;startArrow=oval;startFill=1;fillColor=#b1ddf0;strokeColor=#10739e;" edge="1" parent="1">
          <mxGeometry width="50" height="50" relative="1" as="geometry">
            <mxPoint x="-120" y="120" as="sourcePoint" />
            <mxPoint x="-80" y="160" as="targetPoint" />
            <Array as="points">
              <mxPoint x="-110" y="121" />
              <mxPoint x="-110" y="160" />
            </Array>
          </mxGeometry>
        </mxCell>
        <mxCell id="qAHA50P31FC1RU9cQXs8-11" value="" style="endArrow=oval;html=1;rounded=0;strokeWidth=3;edgeStyle=orthogonalEdgeStyle;curved=1;endFill=1;startArrow=oval;startFill=1;fillColor=#b1ddf0;strokeColor=#10739e;" edge="1" parent="1">
          <mxGeometry width="50" height="50" relative="1" as="geometry">
            <mxPoint x="70" y="120" as="sourcePoint" />
            <mxPoint x="110" y="160" as="targetPoint" />
            <Array as="points">
              <mxPoint x="80" y="121" />
              <mxPoint x="80" y="160" />
            </Array>
          </mxGeometry>
        </mxCell>
        <mxCell id="qAHA50P31FC1RU9cQXs8-13" value="" style="endArrow=oval;html=1;rounded=0;endFill=1;startArrow=oval;startFill=1;strokeWidth=3;edgeStyle=orthogonalEdgeStyle;curved=1;fillColor=#b1ddf0;strokeColor=#10739e;" edge="1" parent="1">
          <mxGeometry width="50" height="50" relative="1" as="geometry">
            <mxPoint x="120" y="120" as="sourcePoint" />
            <mxPoint x="160" y="80" as="targetPoint" />
            <Array as="points">
              <mxPoint x="140" y="120" />
              <mxPoint x="140" y="80" />
            </Array>
          </mxGeometry>
        </mxCell>
        <mxCell id="qAHA50P31FC1RU9cQXs8-22" value="main" style="rounded=1;whiteSpace=wrap;html=1;fillColor=#d0cee2;strokeColor=#56517e;fontSize=10;verticalAlign=middle;" vertex="1" parent="1">
          <mxGeometry x="-320" y="59" width="40" height="14" as="geometry" />
        </mxCell>
        <mxCell id="qAHA50P31FC1RU9cQXs8-23" value="feature branch" style="rounded=1;whiteSpace=wrap;html=1;fillColor=#b1ddf0;strokeColor=#10739e;fontSize=10;" vertex="1" parent="1">
          <mxGeometry x="-200" y="99" width="80" height="14" as="geometry" />
        </mxCell>
        <mxCell id="qAHA50P31FC1RU9cQXs8-24" value="incubation" style="rounded=1;whiteSpace=wrap;html=1;fillColor=#fad9d5;strokeColor=#ae4132;fontSize=10;" vertex="1" parent="1">
          <mxGeometry x="-240" y="139" width="60" height="14" as="geometry" />
        </mxCell>
        <mxCell id="yPj2-7sTMR522S8nLr12-1" value="" style="swimlane;startSize=0;rounded=1;" vertex="1" parent="1">
          <mxGeometry x="-250" y="180" width="380" height="160" as="geometry" />
        </mxCell>
        <mxCell id="yPj2-7sTMR522S8nLr12-2" value="&lt;h1&gt;Legend&lt;/h1&gt;" style="text;html=1;strokeColor=none;fillColor=none;spacing=5;spacingTop=-20;whiteSpace=wrap;overflow=hidden;rounded=1;fontStyle=4;align=center;" vertex="1" parent="yPj2-7sTMR522S8nLr12-1">
          <mxGeometry x="40" y="8" width="310" height="40" as="geometry" />
        </mxCell>
        <mxCell id="yPj2-7sTMR522S8nLr12-3" value="" style="ellipse;whiteSpace=wrap;html=1;aspect=fixed;fillColor=#000000;" vertex="1" parent="yPj2-7sTMR522S8nLr12-1">
          <mxGeometry x="66" y="100" width="8" height="8" as="geometry" />
        </mxCell>
        <mxCell id="yPj2-7sTMR522S8nLr12-4" value="Git commit" style="text;html=1;strokeColor=none;fillColor=none;align=center;verticalAlign=middle;whiteSpace=wrap;rounded=0;" vertex="1" parent="yPj2-7sTMR522S8nLr12-1">
          <mxGeometry x="30" y="113.51" width="80" height="30" as="geometry" />
        </mxCell>
        <mxCell id="yPj2-7sTMR522S8nLr12-5" value="" style="endArrow=block;html=1;rounded=0;strokeWidth=3;endFill=1;" edge="1" parent="yPj2-7sTMR522S8nLr12-1">
          <mxGeometry width="50" height="50" relative="1" as="geometry">
            <mxPoint x="265" y="99.99999999999999" as="sourcePoint" />
            <mxPoint x="345" y="99.99999999999999" as="targetPoint" />
          </mxGeometry>
        </mxCell>
        <mxCell id="yPj2-7sTMR522S8nLr12-6" value="On-going branch" style="text;html=1;strokeColor=none;fillColor=none;align=center;verticalAlign=middle;whiteSpace=wrap;rounded=0;" vertex="1" parent="yPj2-7sTMR522S8nLr12-1">
          <mxGeometry x="250" y="113.50999999999999" width="110" height="30" as="geometry" />
        </mxCell>
        <mxCell id="yPj2-7sTMR522S8nLr12-7" value="" style="endArrow=oval;html=1;rounded=0;strokeWidth=3;edgeStyle=orthogonalEdgeStyle;curved=1;endFill=1;startArrow=oval;startFill=1;" edge="1" parent="yPj2-7sTMR522S8nLr12-1">
          <mxGeometry width="50" height="50" relative="1" as="geometry">
            <mxPoint x="159" y="73.49000000000001" as="sourcePoint" />
            <mxPoint x="199" y="113.49000000000001" as="targetPoint" />
            <Array as="points">
              <mxPoint x="179" y="73.50999999999999" />
              <mxPoint x="179" y="113.50999999999999" />
            </Array>
          </mxGeometry>
        </mxCell>
        <mxCell id="yPj2-7sTMR522S8nLr12-8" value="Branch merge" style="text;html=1;strokeColor=none;fillColor=none;align=center;verticalAlign=middle;whiteSpace=wrap;rounded=0;" vertex="1" parent="yPj2-7sTMR522S8nLr12-1">
          <mxGeometry x="130" y="113.50999999999999" width="110" height="30" as="geometry" />
        </mxCell>
      </root>
    </mxGraphModel>
  </diagram>
</mxfile>
